<?xml version="1.0" encoding="UTF-8" standalone="no"?>
<!-- Created with Inkscape (http://www.inkscape.org/) -->

<svg
   xmlns:dc="http://purl.org/dc/elements/1.1/"
   xmlns:cc="http://creativecommons.org/ns#"
   xmlns:rdf="http://www.w3.org/1999/02/22-rdf-syntax-ns#"
   xmlns:svg="http://www.w3.org/2000/svg"
   xmlns="http://www.w3.org/2000/svg"
   xmlns:xlink="http://www.w3.org/1999/xlink"
   xmlns:sodipodi="http://sodipodi.sourceforge.net/DTD/sodipodi-0.dtd"
   xmlns:inkscape="http://www.inkscape.org/namespaces/inkscape"
   id="svg2"
   version="1.1"
   inkscape:version="0.48.4 r9939"
   width="50"
   height="50"
   xml:space="preserve"
   sodipodi:docname="Evening.svg"><metadata
     id="metadata8"><rdf:RDF><cc:Work
         rdf:about=""><dc:format>image/svg+xml</dc:format><dc:type
           rdf:resource="http://purl.org/dc/dcmitype/StillImage" /><dc:title /></cc:Work></rdf:RDF></metadata><defs
     id="defs6"><linearGradient
       id="linearGradient3804"><stop
         style="stop-color:#ffec48;stop-opacity:1;"
         offset="0"
         id="stop3806" /><stop
         style="stop-color:#ffe500;stop-opacity:0;"
         offset="1"
         id="stop3808" /></linearGradient><linearGradient
       id="linearGradient3514"><stop
         style="stop-color:#16e4ff;stop-opacity:1;"
         offset="0"
         id="stop3516" /><stop
         style="stop-color:#ccd1d8;stop-opacity:0;"
         offset="1"
         id="stop3518" /></linearGradient><radialGradient
       inkscape:collect="always"
       xlink:href="#linearGradient3514"
       id="radialGradient3522"
       cx="15.637486"
       cy="27.291958"
       fx="15.637486"
       fy="27.291958"
       r="25.269629"
       gradientUnits="userSpaceOnUse"
       gradientTransform="matrix(1.5481428,-0.01817106,0.01672583,1.4248396,2.1819163,-11.729879)" /><radialGradient
       inkscape:collect="always"
       xlink:href="#linearGradient3804"
       id="radialGradient3810"
       cx="24.927217"
       cy="25.879055"
       fx="24.927217"
       fy="25.879055"
       r="29.496086"
       gradientTransform="matrix(6.287016,0,0,6.2297307,33.024669,-363.7742)"
       gradientUnits="userSpaceOnUse" /></defs><sodipodi:namedview
     pagecolor="#ffffff"
     bordercolor="#666666"
     borderopacity="1"
     objecttolerance="10"
     gridtolerance="10"
     guidetolerance="10"
     inkscape:pageopacity="0"
     inkscape:pageshadow="2"
     inkscape:window-width="1366"
     inkscape:window-height="744"
     id="namedview4"
     showgrid="false"
     inkscape:zoom="7.4416655"
     inkscape:cx="36.883239"
     inkscape:cy="23.865625"
     inkscape:window-x="0"
     inkscape:window-y="24"
     inkscape:window-maximized="1"
     inkscape:current-layer="g12" /><g
     id="g10"
     inkscape:groupmode="layer"
     inkscape:label="ink_ext_XXXXXX"
     transform="matrix(1.25,0,0,-1.25,0,50)"><g
       id="g12"
       transform="scale(0.1,0.1)"><rect
         style="fill:url(#radialGradient3810);fill-opacity:1.0;stroke:none"
         id="rect3802"
         width="370.88474"
         height="367.50534"
         x="4.3001132"
         y="-386.30734"
         transform="scale(1,-1)" /><g
         id="g3118"
         transform="matrix(0.83210141,0,0,0.83210141,-280.30077,-300.56459)"><path
           inkscape:connector-curvature="0"
           id="path16"
           style="fill:#6176b7;fill-opacity:1;fill-rule:nonzero;stroke:none"
           d="m 688.95883,615.68189 c 0,-66.4631 -53.8791,-120.3409 -120.3422,-120.3409 -66.4643,0 -120.3446,53.8778 -120.3446,120.3409 0,66.4656 53.8803,120.3446 120.3446,120.3446 66.4631,0 120.3422,-53.879 120.3422,-120.3446" /><path
           inkscape:connector-curvature="0"
           id="path18"
           style="fill:#7b94d3;fill-opacity:1;fill-rule:nonzero;stroke:none"
           d="m 568.57753,493.52419 c 66.441,0 120.3041,53.9685 120.3041,120.5393 0,0.3749 -0.01,0.7462 -0.013,1.1186 -4.4691,14.1068 -15.1089,24.3007 -27.7591,25.3359 -4.8893,19.5437 -19.4665,33.7277 -36.6875,33.7277 -14.2194,0 -26.6283,-9.6745 -33.2817,-24.052 -2.6327,0.9702 -5.4174,1.4995 -8.3012,1.4995 -10.8689,0 -20.329,-7.3909 -25.4266,-18.3591 -8.0487,-2.1133 -15.1664,-7.3897 -20.4992,-14.7328 -2.2872,-2.0618 -4.0918,-4.8905 -5.1833,-8.1934 -2.5457,0.8992 -5.2201,1.4015 -7.9937,1.4015 -3.206,0 -6.2724,-0.6774 -9.1599,-1.8621 -1.6722,9.9415 -8.4482,17.5186 -16.7493,18.1973 -2.792,11.174 -11.1262,19.2804 -20.966,19.2804 -8.1297,0 -15.2241,-5.5313 -19.0268,-13.7467 -1.5044,0.5513 -3.0994,0.8551 -4.7447,0.8551 -1.0732,0 -2.1255,-0.1274 -3.1436,-0.3687 -1.0952,-6.5371 -1.6747,-13.2505 -1.6747,-20.1012 0,-66.5708 53.8619,-120.5393 120.3055,-120.5393" /><path
           inkscape:connector-curvature="0"
           id="path20"
           style="fill:#94afd6;fill-opacity:1;fill-rule:nonzero;stroke:none"
           d="m 687.92243,599.97759 c -0.9862,0.8465 -2.1586,1.3488 -3.5074,1.3488 -1.3856,0 -2.6731,-0.49 -3.7757,-1.3268 -0.8747,8.7447 -6.8225,15.512 -14.0407,15.512 -1.3843,0 -2.7258,-0.2536 -3.9901,-0.7203 -3.1999,6.9144 -9.1612,11.5697 -15.9983,11.5697 -8.2779,0 -15.2853,-6.8213 -17.6363,-16.225 -6.978,-0.5709 -12.6796,-6.9462 -14.0823,-15.3123 -2.4305,0.9972 -5.0117,1.5656 -7.7045,1.5656 -2.3326,0 -4.583,-0.4226 -6.722,-1.1773 -0.9176,2.7785 -2.4355,5.1576 -4.3577,6.8935 -4.4862,6.1794 -10.4707,10.6203 -17.2405,12.3979 -4.2878,9.2297 -12.2447,15.4495 -21.3813,15.4495 -2.4282,0 -4.7705,-0.4472 -6.9842,-1.2631 -5.5938,12.0965 -16.0314,20.2408 -27.9895,20.2408 -14.4792,0 -26.7386,-11.936 -30.8524,-28.3827 -12.4431,-1.0193 -22.5819,-12.5779 -24.792,-27.6256 -1.4762,0.5293 -3.021,0.8294 -4.6295,0.8294 -4.3172,0 -8.2362,-2.0618 -11.2034,-5.4283 2.8006,-12.9001 7.6592,-25.0309 14.2147,-36.0259 22.5721,-34.1921 57.8691,-56.8022 97.8594,-58.6447 0.2266,-0.011 0.4508,-0.018 0.6787,-0.027 1.4835,-0.058 2.9745,-0.094 4.4691,-0.098 l 0.2021,0 c 0.3896,0 0.7767,0.01 1.1675,0.015 0.5121,0.01 1.0254,0.01 1.535,0.02 43.9314,1.0463 82.1883,27.0339 104.6832,66.1421 6.2381,12.355 10.412,25.9313 12.0781,40.2758" /><path
           inkscape:connector-curvature="0"
           id="path22"
           style="fill:#b4c9dd;fill-opacity:1;fill-rule:nonzero;stroke:none"
           d="m 676.59773,581.67979 c -1.2875,0 -2.4918,-0.4006 -3.5184,-1.0842 -0.8122,7.1508 -6.352,12.6845 -13.0741,12.6845 -1.2949,0 -2.5396,-0.2083 -3.7168,-0.588 -2.9819,5.6537 -8.5364,9.46 -14.9032,9.46 -7.7106,0 -14.2366,-5.579 -16.4246,-13.2664 -6.5028,-0.4692 -11.811,-5.6831 -13.1194,-12.5228 -2.2615,0.8147 -4.6663,1.2778 -7.1753,1.2778 -2.1733,0 -4.2682,-0.343 -6.2602,-0.9617 -0.8539,2.2725 -2.2713,4.2192 -4.0599,5.6378 -4.1787,5.0523 -9.7529,8.6846 -16.0547,10.1388 -3.995,7.5465 -11.4092,12.6318 -19.9173,12.6318 -2.2603,0 -4.441,-0.3638 -6.5077,-1.0303 -5.2066,9.8913 -14.9288,16.5496 -26.066,16.5496 -13.4894,0 -24.9059,-9.759 -28.7392,-23.2079 -11.5868,-0.833 -21.0322,-10.2858 -23.0903,-22.5917 -1.3733,0.4324 -2.8128,0.6787 -4.3111,0.6787 -5.1208,0 -9.6487,-2.7283 -12.4958,-6.9217 17.9168,-44.016 61.0274,-75.0399 111.3782,-75.0399 53.4638,0 98.7722,34.9785 114.4103,83.3472 -0.9837,2.8103 -3.4535,4.8084 -6.3545,4.8084" /><path
           inkscape:connector-curvature="0"
           id="path24"
           style="fill:#7b94d3;fill-opacity:1;fill-rule:nonzero;stroke:none"
           d="m 644.56063,514.40329 c -0.065,0.1641 -0.1298,0.3271 -0.1972,0.4912 0.1323,-0.015 0.2634,-0.033 0.3932,-0.048 -0.067,-0.1458 -0.1298,-0.2965 -0.196,-0.4434 z m 79.9758,5.1575 c -1.437,0.065 -2.8312,-0.069 -4.1739,-0.3393 -3.8565,9.846 -13.2186,17.0176 -24.4648,17.5211 l -0.065,0 c 0.06,0.4215 0.1042,0.8465 0.125,1.279 0.3393,7.6114 -5.5521,14.059 -13.1647,14.4008 -1.2472,0.055 -2.4563,-0.071 -3.6189,-0.3295 -2.6535,14.0651 -14.6777,24.988 -29.5955,25.6569 -4.866,0.2193 -9.5275,-0.6787 -13.7332,-2.4637 -2.8838,6.8592 -9.5005,11.8196 -17.4268,12.1761 -10.9681,0.4925 -20.2591,-7.9998 -20.7541,-18.9704 -0.01,-0.2524 0.01,-0.501 0.01,-0.7509 l -0.037,0 c -12.4333,0.5586 -23.252,-7.5269 -26.6479,-18.9422 -0.234,0.015 -0.468,0.038 -0.7032,0.049 -12.2178,0.5476 -23.17,-5.617 -29.3174,-15.229 -2.0765,0.6298 -4.2597,1.0132 -6.5285,1.1149 -14.6544,0.6579 -27.0682,-10.6888 -27.726,-25.342 -0.6591,-14.6532 10.69,-27.0682 25.3445,-27.7261 7.1189,-0.3197 13.7074,2.2015 18.6787,6.5542 4.7901,-3.1362 10.4512,-5.0731 16.5877,-5.3511 11.8501,-0.5305 22.5169,5.2556 28.7551,14.3775 3.1974,-9.9391 12.2973,-17.3263 23.3389,-17.8224 11.0197,-0.495 20.726,6.0212 24.8178,15.6013 3.5098,-8.5057 11.6958,-14.6617 21.494,-15.1003 5.9379,-0.2683 11.4741,1.6097 15.8611,4.9444 3.538,-1.9062 7.5502,-3.0651 11.8355,-3.2587 7.6041,-0.3418 14.625,2.4281 19.8341,7.1814 2.7062,-2.0961 6.0543,-3.4155 9.7357,-3.5821 9.4846,-0.4251 17.5199,6.918 17.9474,16.4002 0.4239,9.487 -6.9168,17.5223 -16.4038,17.9474" /><path
           inkscape:connector-curvature="0"
           id="path26"
           style="fill:#6176b7;fill-opacity:1;fill-rule:nonzero;stroke:none"
           d="m 723.04303,486.30839 c -3.6826,0.1654 -7.0308,1.4849 -9.7382,3.581 -5.2078,-4.7521 -12.2299,-7.522 -19.8328,-7.1815 -4.2853,0.1936 -8.2938,1.3537 -11.8343,3.26 -4.3894,-3.3335 -9.9244,-5.2127 -15.8623,-4.9457 -9.797,0.4399 -17.983,6.5959 -21.4965,15.1016 -4.0894,-9.5825 -13.7944,-16.0963 -24.8152,-15.6014 -11.0417,0.495 -20.1416,7.8846 -23.3378,17.8213 -6.2382,-9.1196 -16.9062,-14.9068 -28.7588,-14.3752 -6.1303,0.2757 -11.7951,2.2114 -16.584,5.35 -4.9713,-4.3527 -11.5598,-6.8739 -18.6787,-6.5542 -12.3452,0.5525 -22.3394,9.4466 -24.7945,20.993 -0.6505,-2.1145 -1.0474,-4.3429 -1.1515,-6.6547 -0.6591,-14.6544 10.69,-27.0681 25.3444,-27.7248 7.1214,-0.3209 13.7075,2.2003 18.6788,6.553 4.7901,-3.1362 10.4537,-5.0743 16.5876,-5.3499 11.849,-0.5329 22.517,5.2556 28.7539,14.3763 3.1987,-9.9379 12.2973,-17.3275 23.3403,-17.8237 11.0195,-0.4949 20.7259,6.0212 24.8176,15.6014 3.5099,-8.5057 11.6959,-14.6593 21.4916,-15.0991 5.9392,-0.2683 11.4741,1.6109 15.8636,4.9444 3.538,-1.9062 7.5502,-3.0651 11.8355,-3.2587 7.6041,-0.3406 14.6226,2.4293 19.8316,7.1802 2.7086,-2.0961 6.0568,-3.4156 9.7382,-3.5809 9.4845,-0.4263 17.5186,6.9192 17.9462,16.4038 0.1066,2.373 -0.2732,4.6566 -1.0536,6.7539 -2.8863,-6.0409 -9.182,-10.0898 -16.2911,-9.7701" /><path
           inkscape:connector-curvature="0"
           id="path28"
           style="fill:#6176b7;fill-opacity:1;fill-rule:nonzero;stroke:none"
           d="m 644.41483,515.98849 c 0.066,-0.1617 0.1311,-0.3271 0.1924,-0.4913 0.067,0.1483 0.1286,0.2977 0.1997,0.4435 -0.1323,0.016 -0.2647,0.033 -0.3921,0.048" /><path
           inkscape:connector-curvature="0"
           id="path30"
           style="fill:#7b94d3;fill-opacity:1;fill-rule:nonzero;stroke:none"
           d="m 526.23373,495.71829 c -0.4079,-9.0705 -8.0892,-16.0939 -17.1621,-15.6871 -9.0693,0.4067 -16.0927,8.0904 -15.6859,17.1609 0.4079,9.0692 8.0929,16.0914 17.1621,15.6847 9.0693,-0.4067 16.0902,-8.0905 15.6859,-17.1585" /><path
           inkscape:connector-curvature="0"
           id="path32"
           style="fill:#6176b7;fill-opacity:1;fill-rule:nonzero;stroke:none"
           d="m 509.07163,480.03119 c -7.9569,0.3577 -14.331,6.3116 -15.5034,13.8899 -0.2634,-1.045 -0.4251,-2.1279 -0.4753,-3.2428 -0.4068,-9.0717 6.6154,-16.7542 15.6884,-17.1621 9.0704,-0.4068 16.7505,6.6166 17.1584,15.6871 0.05,1.1149 -0.012,2.2101 -0.1788,3.271 -1.8487,-7.4412 -8.7324,-12.7997 -16.6893,-12.4431" /><path
           inkscape:connector-curvature="0"
           id="path34"
           style="fill:#6176b7;fill-opacity:1;fill-rule:nonzero;stroke:none"
           d="m 643.65283,539.66559 c 11.2524,-0.5059 20.2004,-9.1133 21.5272,-19.9345 0.2633,1.2276 0.4545,2.4808 0.5121,3.7757 0.5635,12.5485 -9.1526,23.1773 -21.6975,23.7396 -12.5509,0.5636 -23.1785,-9.1513 -23.742,-21.6986 -0.058,-1.2961 0.018,-2.5617 0.1715,-3.8063 2.2897,10.6582 11.9739,18.4289 23.2287,17.9241" /><path
           inkscape:connector-curvature="0"
           id="path36"
           style="fill:#6176b7;fill-opacity:1;fill-rule:nonzero;stroke:none"
           d="m 582.23343,519.81689 c 11.2524,-0.5048 20.204,-9.1122 21.5284,-19.9321 0.2634,1.2251 0.4545,2.4796 0.5121,3.7745 0.5635,12.5473 -9.1526,23.1773 -21.7011,23.7408 -12.5473,0.5623 -23.1749,-9.1526 -23.7384,-21.701 -0.058,-1.295 0.019,-2.5617 0.1715,-3.8064 2.2897,10.6582 11.974,18.4301 23.2275,17.9242" /><path
           inkscape:connector-curvature="0"
           id="path38"
           style="fill:#6176b7;fill-opacity:1;fill-rule:nonzero;stroke:none"
           d="m 702.20683,508.04139 c 8.311,-0.3724 14.9154,-6.7282 15.8942,-14.712 0.1936,0.9041 0.3357,1.8303 0.3786,2.787 0.414,9.2617 -6.7551,17.1071 -16.0192,17.5224 -9.2604,0.4165 -17.107,-6.7551 -17.5235,-16.0167 -0.043,-0.9556 0.015,-1.8916 0.1261,-2.8091 1.6894,7.8638 8.839,13.6008 17.1438,13.2284" /><path
           inkscape:connector-curvature="0"
           id="path40"
           style="fill:#6176b7;fill-opacity:1;fill-rule:nonzero;stroke:none"
           d="m 617.70323,567.97239 c 8.3048,-0.3725 14.9129,-6.727 15.8893,-14.7133 0.196,0.9041 0.3381,1.8303 0.3798,2.7871 0.4153,9.2616 -6.7551,17.107 -16.0179,17.5236 -9.2617,0.4152 -17.1095,-6.7551 -17.5248,-16.018 -0.042,-0.9556 0.016,-1.8903 0.1274,-2.8103 1.6918,7.8674 8.8389,13.6045 17.1462,13.2309" /><path
           inkscape:connector-curvature="0"
           id="path42"
           style="fill:#6176b7;fill-opacity:1;fill-rule:nonzero;stroke:none"
           d="m 586.93163,547.39589 c 7.6678,-0.5537 13.6156,-6.5921 14.3212,-14.0002 0.1985,0.8318 0.3553,1.6845 0.4165,2.5665 0.6175,8.5523 -5.8117,15.9824 -14.3665,16.6011 -8.5498,0.6174 -15.9836,-5.8142 -16.5986,-14.3653 -0.065,-0.8821 -0.035,-1.7482 0.047,-2.6008 1.7592,7.2304 8.5106,12.3537 16.1809,11.7987" /><path
           inkscape:connector-curvature="0"
           id="path44"
           style="fill:#6176b7;fill-opacity:1;fill-rule:nonzero;stroke:none"
           d="m 526.79973,508.33289 c 7.2783,-0.327 13.068,-5.8938 13.9243,-12.8902 0.1715,0.7926 0.2928,1.6048 0.3296,2.4428 0.365,8.1137 -5.9172,14.9876 -14.0358,15.3514 -8.1137,0.3651 -14.9876,-5.9183 -15.3527,-14.0332 -0.037,-0.8368 0.014,-1.6563 0.1103,-2.4612 1.4823,6.8911 7.7449,11.9175 15.0243,11.5904" /><path
           inkscape:connector-curvature="0"
           id="path46"
           style="fill:#6176b7;fill-opacity:1;fill-rule:nonzero;stroke:none"
           d="m 663.77603,520.41959 c 6.0237,-0.2719 10.8138,-4.8783 11.5244,-10.6705 0.1421,0.6567 0.2437,1.3293 0.2732,2.0215 0.3026,6.7158 -4.8992,12.4051 -11.6138,12.7077 -6.7147,0.3014 -12.4064,-4.8991 -12.7065,-11.615 -0.033,-0.6946 0.01,-1.3721 0.089,-2.0385 1.2275,5.7052 6.4109,9.8644 12.4333,9.5948" /><path
           inkscape:connector-curvature="0"
           id="path48"
           style="fill:#6176b7;fill-opacity:1;fill-rule:nonzero;stroke:none"
           d="m 542.31173,525.87249 c 6.0238,-0.2695 10.8138,-4.8771 11.5244,-10.6693 0.1409,0.6554 0.2401,1.328 0.2731,2.0214 0.3002,6.7159 -4.899,12.4052 -11.6174,12.7066 -6.7159,0.3013 -12.4064,-4.8979 -12.7065,-11.6151 -0.029,-0.6933 0.01,-1.3708 0.089,-2.0373 1.2275,5.704 6.4121,9.8632 12.437,9.5937" /><path
           inkscape:connector-curvature="0"
           id="path50"
           style="fill:#6176b7;fill-opacity:1;fill-rule:nonzero;stroke:none"
           d="m 623.15603,524.39869 c 5.5056,-0.2475 9.8815,-4.4581 10.5308,-9.7492 0.1286,0.599 0.2205,1.2128 0.2487,1.8462 0.2744,6.1376 -4.4752,11.3356 -10.6129,11.6113 -6.1364,0.2769 -11.3357,-4.4752 -11.6088,-10.6129 -0.029,-0.6333 0.01,-1.252 0.08,-1.8621 1.1234,5.2139 5.8571,9.0141 11.3626,8.7667" /><path
           inkscape:connector-curvature="0"
           id="path52"
           style="fill:#6176b7;fill-opacity:1;fill-rule:nonzero;stroke:none"
           d="m 680.98963,541.87079 c 5.5044,-0.2475 9.8816,-4.4581 10.5308,-9.7504 0.1287,0.6002 0.2205,1.214 0.2487,1.8474 0.2744,6.1364 -4.4752,11.3344 -10.6128,11.6101 -6.1365,0.2756 -11.3357,-4.4765 -11.6126,-10.6117 -0.025,-0.6333 0.011,-1.2544 0.086,-1.8621 1.1209,5.2115 5.8546,9.0129 11.3601,8.7667" /></g><path
         style="fill:#ffe500;fill-opacity:1;stroke:none"
         d="m 208.66238,241.99558 c 5.91718,-10.27225 9.36818,-22.14372 9.36818,-34.84965 0,-38.66444 -31.40959,-70.07402 -70.07402,-70.07402 -17.29172,0 -33.00268,6.34852 -45.21711,16.73783 12.10656,-20.91845 34.6733,-35.09948 60.58093,-35.09948 38.66444,0 69.94912,31.4096 69.94912,70.07403 0,21.33487 -9.55623,40.37053 -24.6071,53.21129 z"
         id="path3028"
         inkscape:connector-curvature="0" /><path
         sodipodi:type="star"
         style="fill:#5162ae;fill-opacity:1;stroke:none"
         id="path3814"
         sodipodi:sides="6"
         sodipodi:cx="9.5408749"
         sodipodi:cy="11.8365"
         sodipodi:r1="1.7520815"
         sodipodi:r2="0.87604077"
         sodipodi:arg1="2.1375255"
         sodipodi:arg2="2.6611243"
         inkscape:flatsided="false"
         inkscape:rounded="0"
         inkscape:randomized="0"
         d="m 8.6002249,13.314664 0.1637954,-1.073263 -0.9735979,-0.480445 1.0113702,-0.394781 -0.070721,-1.083383 0.8475749,0.678482 0.9028772,-0.602938 -0.163795,1.073263 0.973598,0.480446 -1.011371,0.39478 0.07072,1.083383 -0.8475748,-0.678482 z"
         transform="matrix(8,0,0,-8,0,400)" /><path
         transform="matrix(5.2363559,0,0,-7.6540444,63.456053,378.16713)"
         d="m 8.6002249,13.314664 0.1637954,-1.073263 -0.9735979,-0.480445 1.0113702,-0.394781 -0.070721,-1.083383 0.8475749,0.678482 0.9028772,-0.602938 -0.163795,1.073263 0.973598,0.480446 -1.011371,0.39478 0.07072,1.083383 -0.8475748,-0.678482 z"
         inkscape:randomized="0"
         inkscape:rounded="0"
         inkscape:flatsided="false"
         sodipodi:arg2="2.6611243"
         sodipodi:arg1="2.1375255"
         sodipodi:r2="0.87604076"
         sodipodi:r1="1.7520815"
         sodipodi:cy="11.8365"
         sodipodi:cx="9.5408745"
         sodipodi:sides="6"
         id="path3816"
         style="fill:#5162ae;fill-opacity:1;stroke:none"
         sodipodi:type="star" /><path
         sodipodi:type="star"
         style="fill:#5162ae;fill-opacity:1;stroke:none"
         id="path3818"
         sodipodi:sides="6"
         sodipodi:cx="9.5408745"
         sodipodi:cy="11.8365"
         sodipodi:r1="1.7520815"
         sodipodi:r2="0.87604076"
         sodipodi:arg1="2.1375255"
         sodipodi:arg2="2.6611243"
         inkscape:flatsided="false"
         inkscape:rounded="0"
         inkscape:randomized="0"
         d="m 8.6002249,13.314664 0.1637954,-1.073263 -0.9735979,-0.480445 1.0113702,-0.394781 -0.070721,-1.083383 0.8475749,0.678482 0.9028772,-0.602938 -0.163795,1.073263 0.973598,0.480446 -1.011371,0.39478 0.07072,1.083383 -0.8475748,-0.678482 z"
         transform="matrix(5.2363559,0,0,-7.6540444,83.881588,405.04283)" /></g></g></svg>