<?xml version="1.0" encoding="UTF-8"?>
<!DOCTYPE svg PUBLIC "-//W3C//DTD SVG 1.1//EN" "http://www.w3.org/Graphics/SVG/1.1/DTD/svg11.dtd">
<!-- Creator: CorelDRAW X7 -->
<svg xmlns="http://www.w3.org/2000/svg" xml:space="preserve" width="144px" height="24px" version="1.1" style="shape-rendering:geometricPrecision; text-rendering:geometricPrecision; image-rendering:optimizeQuality; fill-rule:evenodd; clip-rule:evenodd"
viewBox="0 0 144 24"
 xmlns:xlink="http://www.w3.org/1999/xlink">
 <defs>
  <style type="text/css">
   <![CDATA[
    .fil0 {fill:white}
   ]]>
  </style>
 </defs>
 <g id="Layer_x0020_1">
  <metadata id="CorelCorpID_0Corel-Layer"/>
  <g id="_1680869673456">
   <path class="fil0" d="M22 24l-20 0c-1,0 -2,-1 -2,-1l0 -21c0,-1 1,-2 2,-2l20 0c1,0 2,1 2,2l0 21c0,0 -1,1 -2,1zm-19 -3l18 0 0 -18 -18 0 0 18z"/>
   <path class="fil0" d="M9 6c1,0 2,1 2,2 0,0 -1,1 -2,1 -1,0 -2,-1 -2,-2 0,0 1,-1 2,-1z" data-color="color-2"/>
   <polygon class="fil0" points="5,18 7,12 11,15 15,9 20,18 " data-color="color-2"/>
  </g>
  <g id="_1680869672496">
   <g>
    <path class="fil0" d="M36 3c2,0 3,1 3,3l0 2c0,1 -1,3 -3,3 -2,0 -3,-2 -3,-4l0 -1c0,-2 1,-3 3,-3l0 0zm0 -3c-3,0 -6,3 -6,6l0 2c0,3 3,6 6,6 3,0 6,-3 6,-6l0 -2c0,-3 -3,-6 -6,-6l0 0z"/>
   </g>
   <g>
    <path class="fil0" d="M38 18c2,0 4,1 5,3l-14 0c1,-2 3,-3 6,-3l3 0 0 0zm0 -3l-4 0c-4,0 -9,4 -9,9l0 0 22 0 0 0c0,-5 -5,-9 -9,-9l0 0z" data-color="color-2"/>
   </g>
  </g>
  <g>
   <path class="fil0" d="M66 0l-16 0 0 24 16 0c3,0 5,-2 5,-4l-1 -15c0,-3 -1,-5 -4,-5zm1 20c0,0 0,1 -1,1l-14 0 0 -18 14 0c1,0 2,1 2,2l-1 15z"/>
   <polygon class="fil0" points="56,14 59,11 61,14 61,5 56,5 " data-color="color-2"/>
  </g>
  <g>
   <path class="fil0" d="M84 0c-7,0 -12,5 -12,11 0,5 5,10 12,10 0,0 1,0 1,0l8 3 0 -7c2,-1 3,-4 3,-6 0,-6 -5,-11 -12,-11zm6 16l0 4 -5 -2c0,0 -1,0 -1,0 -5,0 -9,-3 -9,-7 0,-5 4,-8 9,-8 5,0 9,3 9,8 0,3 -3,5 -3,5z"/>
  </g>
  <g>
   <path class="fil0" d="M108 0c-7,0 -12,5 -12,12 0,7 5,12 12,12 7,0 12,-5 12,-12 0,-7 -5,-12 -12,-12zm9 14l-8 0 -3 -7 -2 1 2 6 -7 0c0,-1 0,-2 0,-2 0,-5 4,-9 9,-9 5,0 9,4 9,9 0,0 0,1 0,2z"/>
  </g>
  <g>
   <path class="fil0" d="M135 21l-6 0c0,2 1,3 3,3 2,0 3,-1 3,-3z" data-color="color-2"/>
   <path class="fil0" d="M142 17l0 0c-1,-2 -3,-3 -3,-5l0 -5c0,-4 -3,-7 -7,-7 -4,0 -8,3 -8,7l0 5c0,2 -1,3 -2,5l-1 0c0,0 -1,0 -1,1 0,1 1,2 1,2l21 0c1,0 2,-1 2,-2 0,-1 -1,-1 -2,-1z"/>
  </g>
 </g>
</svg>
