<?xml version="1.0" encoding="UTF-8" standalone="no"?>
<!-- Created with Inkscape (http://www.inkscape.org/) -->

<svg
   xmlns:dc="http://purl.org/dc/elements/1.1/"
   xmlns:cc="http://creativecommons.org/ns#"
   xmlns:rdf="http://www.w3.org/1999/02/22-rdf-syntax-ns#"
   xmlns:svg="http://www.w3.org/2000/svg"
   xmlns="http://www.w3.org/2000/svg"
   xmlns:xlink="http://www.w3.org/1999/xlink"
   xmlns:sodipodi="http://sodipodi.sourceforge.net/DTD/sodipodi-0.dtd"
   xmlns:inkscape="http://www.inkscape.org/namespaces/inkscape"
   id="svg2"
   version="1.1"
   inkscape:version="0.48.4 r9939"
   width="50"
   height="50"
   xml:space="preserve"
   sodipodi:docname="Afternoon.svg"><metadata
     id="metadata8"><rdf:RDF><cc:Work
         rdf:about=""><dc:format>image/svg+xml</dc:format><dc:type
           rdf:resource="http://purl.org/dc/dcmitype/StillImage" /><dc:title></dc:title></cc:Work></rdf:RDF></metadata><defs
     id="defs6"><linearGradient
       id="linearGradient3514"><stop
         style="stop-color:#16e4ff;stop-opacity:1;"
         offset="0"
         id="stop3516" /><stop
         style="stop-color:#ccd1d8;stop-opacity:0;"
         offset="1"
         id="stop3518" /></linearGradient><radialGradient
       inkscape:collect="always"
       xlink:href="#linearGradient3514"
       id="radialGradient3522"
       cx="15.637486"
       cy="27.291958"
       fx="15.637486"
       fy="27.291958"
       r="25.269629"
       gradientUnits="userSpaceOnUse"
       gradientTransform="matrix(1.5481428,-0.01817106,0.01672583,1.4248396,2.1819163,-11.729879)" /></defs><sodipodi:namedview
     pagecolor="#ffffff"
     bordercolor="#666666"
     borderopacity="1"
     objecttolerance="10"
     gridtolerance="10"
     guidetolerance="10"
     inkscape:pageopacity="0"
     inkscape:pageshadow="2"
     inkscape:window-width="1366"
     inkscape:window-height="744"
     id="namedview4"
     showgrid="false"
     inkscape:zoom="3.9109847"
     inkscape:cx="87.702204"
     inkscape:cy="55.650195"
     inkscape:window-x="0"
     inkscape:window-y="24"
     inkscape:window-maximized="1"
     inkscape:current-layer="g12" /><g
     id="g10"
     inkscape:groupmode="layer"
     inkscape:label="ink_ext_XXXXXX"
     transform="matrix(1.25,0,0,-1.25,0,50)"><g
       id="g12"
       transform="scale(0.1,0.1)"><g
         id="g3457"
         transform="translate(-1.5661381,-6.7273182)"><g
           transform="translate(-414.7715,-7.1836815)"
           id="g3139"><path
             d="m 436.0332,224.02271 c 0,-66.4619 53.8791,-120.3421 120.3434,-120.3421 66.4656,0 120.3459,53.8802 120.3459,120.3421 0,66.4655 -53.8803,120.3446 -120.3459,120.3446 -66.4643,0 -120.3434,-53.8791 -120.3434,-120.3446"
             style="fill:#f6f467;fill-opacity:1;fill-rule:nonzero;stroke:none"
             id="path84"
             inkscape:connector-curvature="0" /><path
             d="m 556.3766,103.68061 c -66.4643,0 -120.3434,53.8802 -120.3434,120.3421 0,0.3748 0.011,0.746 0.014,1.1173 4.4691,14.0847 15.1138,24.259 27.7665,25.293 4.8905,19.5143 19.4738,33.6738 36.6997,33.6738 14.2256,0 26.6381,-9.661 33.2916,-24.0128 2.6351,0.969 5.4209,1.4946 8.306,1.4946 10.8689,0 20.3351,-7.3775 25.4376,-18.326 8.0512,-2.1084 15.169,-7.3774 20.5042,-14.7108 2.286,-2.0569 4.0917,-4.882 5.1857,-8.1786 2.5433,0.8967 5.2177,1.3966 7.9937,1.3966 3.2048,0 6.2749,-0.6726 9.1624,-1.8561 1.6734,9.9244 8.4531,17.4893 16.7529,18.1668 2.7957,11.1568 11.1324,19.2485 20.9795,19.2485 8.1285,0 15.2266,-5.5227 19.0305,-13.7222 1.5019,0.5513 3.097,0.8515 4.7472,0.8515 1.0731,0 2.123,-0.1262 3.1423,-0.3676 1.0952,-6.526 1.6759,-13.2296 1.6759,-20.068 0,-66.4619 -53.8803,-120.3421 -120.3458,-120.3421"
             style="fill:#f6c062;fill-opacity:1;fill-rule:nonzero;stroke:none"
             id="path86"
             inkscape:connector-curvature="0" /><path
             d="m 436.8565,209.96001 c 0.9838,0.8441 2.1562,1.3451 3.5086,1.3451 1.3844,0 2.6744,-0.4888 3.7794,-1.3243 0.8747,8.7299 6.8299,15.4875 14.0541,15.4875 1.3832,0 2.7258,-0.2536 3.995,-0.7179 3.1963,6.9008 9.1685,11.55 16.0106,11.55 8.2877,0 15.3,-6.8102 17.6522,-16.198 6.9842,-0.5721 12.6931,-6.9388 14.0983,-15.2877 2.4305,0.9935 5.0142,1.5619 7.7094,1.5619 2.335,0 4.5879,-0.4226 6.7294,-1.1773 0.9187,2.7785 2.4378,5.1527 4.36,6.8862 4.4924,6.1658 10.4818,10.6006 17.2589,12.3745 4.2928,9.2163 12.2545,15.425 21.4022,15.425 2.4281,0 4.7705,-0.4459 6.9903,-1.2606 5.5962,12.0793 16.0424,20.2065 28.0152,20.2065 14.4927,0 26.7618,-11.9127 30.8806,-28.3361 12.4541,-1.0144 22.6015,-12.5559 24.8177,-27.5778 1.4738,0.528 3.021,0.8269 4.6283,0.8269 4.3221,0 8.2473,-2.0593 11.2157,-5.4185 -2.8018,-12.8805 -7.6641,-24.9916 -14.2294,-35.9696 -22.5892,-34.1357 -57.9193,-56.7102 -97.9488,-58.5515 -0.2267,-0.01 -0.4521,-0.014 -0.6787,-0.024 -1.4849,-0.056 -2.9758,-0.094 -4.4728,-0.097 l -0.2046,0 c -0.3908,0 -0.7779,0.011 -1.1675,0.014 -0.5109,0.01 -1.023,0.01 -1.5351,0.018 -43.9742,1.0475 -82.2666,26.9922 -104.7836,66.038 -6.2417,12.3353 -10.4181,25.8872 -12.0854,40.2096"
             style="fill:#fddda3;fill-opacity:1;fill-rule:nonzero;stroke:none"
             id="path88"
             inkscape:connector-curvature="0" /><path
             d="m 448.2363,191.69031 c 1.2924,0 2.4918,-0.3969 3.5233,-1.0829 0.8122,7.1422 6.3594,12.6673 13.0839,12.6673 1.2949,0 2.542,-0.2095 3.7194,-0.5892 2.9818,5.6439 8.5436,9.4441 14.9153,9.4441 7.7143,0 14.2477,-5.5692 16.4381,-13.2444 6.5064,-0.4679 11.8196,-5.6721 13.1304,-12.5007 2.2591,0.8147 4.6664,1.2765 7.179,1.2765 2.1733,0 4.2719,-0.3466 6.2675,-0.9616 0.8539,2.2676 2.2676,4.2106 4.0599,5.6292 4.1862,5.0449 9.759,8.6699 16.0707,10.1204 3.9986,7.5343 11.4141,12.6134 19.932,12.6134 2.2615,0 4.4446,-0.3663 6.5125,-1.029 5.2115,9.8729 14.9399,16.5226 26.0869,16.5226 13.4992,0 24.9231,-9.7431 28.7588,-23.1736 11.5979,-0.8281 21.0506,-10.2674 23.1124,-22.5538 1.3709,0.435 2.814,0.6787 4.3123,0.6787 5.1257,0 9.6585,-2.7233 12.5056,-6.9094 -17.9291,-43.9436 -61.0752,-74.9173 -111.4677,-74.9173 -53.5041,0 -98.8469,34.9221 -114.4972,83.2123 0.9849,2.8055 3.4559,4.7974 6.3569,4.7974"
             style="fill:#f6c062;fill-opacity:1;fill-rule:nonzero;stroke:none"
             id="path90"
             inkscape:connector-curvature="0" /><path
             d="m 533.6452,122.85921 c 0.1434,-0.01 0.2855,-0.017 0.4325,-0.022 2.3448,9.9808 11.4692,17.259 22.109,16.9037 1.3121,-0.047 2.5923,-0.207 3.8309,-0.4704 3.2219,4.1677 8.0095,7.0454 13.4477,7.7694 -3.9068,3.6324 -6.2859,8.8758 -6.0948,14.6263 0.3528,10.5467 9.1869,18.8099 19.7336,18.4571 4.6357,-0.1544 8.8291,-1.9467 12.0438,-4.8048 3.3604,10.9437 13.7196,18.7339 25.7108,18.3346 2.9401,-0.097 5.7468,-0.6885 8.3513,-1.6747 6.5297,8.2105 16.7224,13.3338 28.0139,12.9577 16.5019,-0.5513 29.8896,-12.671 32.6423,-28.308 3.3739,1.8413 7.2697,2.8397 11.3909,2.7038 11.463,-0.3835 20.6058,-9.3731 21.4413,-20.5606 17.3202,-0.9408 30.7899,-15.5609 30.208,-32.9852 -0.01,-0.3455 -0.037,-0.6886 -0.06,-1.034 3.5981,0.7705 7.5833,1.1405 11.7718,0.9996 15.4409,-0.5145 27.7358,-7.6714 27.4602,-15.9861 -0.2781,-8.3121 -13.0226,-14.636002 -28.4635,-14.119002 -9.1085,0.3026 -17.1193,2.9194 -22.1054,6.720802 -5.8277,-4.899102 -13.4207,-7.749902 -21.6313,-7.475402 -10.0015,0.3332 -18.7706,5.227402 -24.395,12.614602 -4.9383,-8.322002 -14.1423,-13.767502 -24.5016,-13.422002 -3.7708,0.1262 -7.3382,1.0082 -10.5663,2.4943 -5.3303,-4.1947 -12.1148,-6.6069 -19.4261,-6.3619 -9.8913,0.3296 -18.4926,5.4369 -23.6723,13.031202 -4.6479,-2.6351 -10.053,-4.068502 -15.7827,-3.877302 -8.0512,0.2682 -15.2523,3.693602 -20.4674,9.042302 -2.8826,-1.3954 -6.1365,-2.1341 -9.5593,-2.0214 -0.4129,0.015 -0.8196,0.044 -1.2275,0.081 -3.9742,-6.599502 -11.31,-10.913002 -19.556,-10.636102 -1.0009,0.032 -1.9773,0.1384 -2.939,0.3001 -5.073,-2.3264 -11.8,-3.6274 -19.1431,-3.3837 -15.4422,0.517 -27.7346,7.671502 -27.4577,15.983702 0.2769,8.3122 13.0189,14.6373 28.461,14.1227"
             style="fill:#ffffff;fill-opacity:1;fill-rule:nonzero;stroke:none"
             id="path92"
             inkscape:connector-curvature="0" /><path
             d="m 725.2173,140.00541 c -11.2548,0.3749 -20.8497,-7.5073 -23.0181,-18.1888 -0.1678,1.241 -0.256,2.5066 -0.2144,3.8027 0.4202,12.5521 10.9339,22.3908 23.4861,21.9706 12.5533,-0.4178 22.3908,-10.9326 21.9742,-23.4861 -0.043,-1.2973 -0.2193,-2.5506 -0.468,-3.7805 -1.4529,10.8027 -10.5001,19.3073 -21.7598,19.6821"
             style="fill:#e4e05c;fill-opacity:1;fill-rule:nonzero;stroke:none"
             id="path94"
             inkscape:connector-curvature="0" /><path
             d="m 681.1045,164.24611 c -8.8034,0.294 -16.3058,-5.8706 -18,-14.2244 -0.1311,0.9739 -0.2009,1.9638 -0.1667,2.9769 0.3259,9.8142 8.5486,17.5064 18.3652,17.1781 9.8154,-0.3247 17.5064,-8.5486 17.1793,-18.3639 -0.033,-1.0132 -0.169,-1.9945 -0.3626,-2.9586 -1.1381,8.4481 -8.2129,15.0991 -17.0152,15.3919"
             style="fill:#e4e05c;fill-opacity:1;fill-rule:nonzero;stroke:none"
             id="path96"
             inkscape:connector-curvature="0" /><path
             d="m 658.9208,181.40211 c -11.2573,0.3761 -20.8533,-7.5073 -23.0193,-18.1887 -0.1666,1.2446 -0.2585,2.5089 -0.2132,3.8026 0.4178,12.5534 10.9302,22.3908 23.4861,21.9743 12.5534,-0.4202 22.3896,-10.9363 21.9731,-23.4885 -0.046,-1.2949 -0.2206,-2.5519 -0.4668,-3.7818 -1.4542,10.804 -10.5014,19.3085 -21.7599,19.6821"
             style="fill:#e4e05c;fill-opacity:1;fill-rule:nonzero;stroke:none"
             id="path98"
             inkscape:connector-curvature="0" /><path
             d="m 647.6268,134.76081 c -11.2548,0.3762 -20.8521,-7.5048 -23.0181,-18.19 -0.1691,1.2423 -0.2585,2.509 -0.2168,3.8039 0.4202,12.5534 10.9363,22.3908 23.4884,21.9706 12.5535,-0.4165 22.3921,-10.9326 21.9744,-23.4848 -0.046,-1.2949 -0.2218,-2.5518 -0.4705,-3.7818 -1.4505,10.804 -10.4977,19.3048 -21.7574,19.6821"
             style="fill:#e4e05c;fill-opacity:1;fill-rule:nonzero;stroke:none"
             id="path100"
             inkscape:connector-curvature="0" /><path
             d="m 617.4432,153.00841 c -9.6058,0.3198 -17.7943,-6.4047 -19.6429,-15.5218 -0.1434,1.061 -0.2205,2.1415 -0.1825,3.2465 0.3577,10.7121 9.3302,19.1064 20.0423,18.7486 10.7109,-0.354 19.1088,-9.3277 18.7511,-20.041 -0.037,-1.1075 -0.1887,-2.1782 -0.3994,-3.2257 -1.2398,9.2163 -8.9615,16.4749 -18.5686,16.7934"
             style="fill:#e4e05c;fill-opacity:1;fill-rule:nonzero;stroke:none"
             id="path102"
             inkscape:connector-curvature="0" /><path
             d="m 595.4787,139.06951 c -7.4509,0.2486 -13.798,-4.9665 -15.2314,-12.0377 -0.1127,0.8233 -0.1715,1.66 -0.1445,2.5175 0.2793,8.3073 7.2365,14.8162 15.5438,14.5369 8.306,-0.2745 14.8161,-7.2329 14.538,-15.5377 -0.027,-0.8564 -0.1445,-1.6894 -0.3099,-2.5041 -0.958,7.1496 -6.9462,12.7764 -14.396,13.0251"
             style="fill:#e4e05c;fill-opacity:1;fill-rule:nonzero;stroke:none"
             id="path104"
             inkscape:connector-curvature="0" /><path
             d="m 552.8092,126.89091 c -7.6139,0.256 -14.1007,-5.0718 -15.5659,-12.2998 -0.1127,0.8404 -0.1752,1.6967 -0.147,2.5776 0.283,8.4849 7.3933,15.1383 15.8807,14.8553 8.4923,-0.2842 15.1445,-7.3958 14.8615,-15.8819 -0.029,-0.8796 -0.1495,-1.7286 -0.3186,-2.5592 -0.98,7.3063 -7.0968,13.0544 -14.7107,13.308"
             style="fill:#e4e05c;fill-opacity:1;fill-rule:nonzero;stroke:none"
             id="path106"
             inkscape:connector-curvature="0" /><path
             d="m 533.3794,95.614608 c 7.3431,-0.2462 14.0713,1.0548 19.1407,3.3812 0.9617,-0.1617 1.9405,-0.2683 2.9402,-0.3001 8.2472,-0.2769 15.5817,4.037902 19.5584,10.638602 0.4067,-0.037 0.8122,-0.067 1.2275,-0.081 3.4216,-0.1152 6.6742,0.6235 9.5581,2.0189 5.2139,-5.3487 12.4137,-8.7716 20.4674,-9.0399 5.7285,-0.1911 11.1348,1.2397 15.7803,3.8774 5.1796,-7.596802 13.7822,-12.704102 23.6722,-13.033702 7.3138,-0.245 14.0958,2.1672 19.4322,6.3643 3.222,-1.4885 6.7919,-2.3705 10.5651,-2.4967 10.3545,-0.3455 19.5597,5.102502 24.5005,13.422002 5.6218,-7.3872 14.3934,-12.281402 24.395,-12.614702 8.2105,-0.2744 15.7986,2.573902 21.63,7.475502 4.9861,-3.8015 12.9957,-6.418202 22.1041,-6.720802 12.3231,-0.4129 23.8058,5.425902 27.7273,11.259702 0.8918,-1.5412 0.4729,-5.0633 0.4153,-6.7428 -0.2769,-8.314702 -13.0201,-14.634802 -28.4623,-14.121502 -9.1097,0.305 -17.1181,2.9193 -22.1054,6.7183 -5.8301,-4.8966 -13.4195,-7.745 -21.6276,-7.473 -10.004,0.3333 -18.7755,5.2274 -24.3974,12.617102 -4.9408,-8.322002 -14.146,-13.769902 -24.4992,-13.424402 -3.7745,0.1274 -7.3444,1.0082 -10.5663,2.4942 -5.3352,-4.1934 -12.1185,-6.6044 -19.431,-6.3618 -9.8913,0.3295 -18.4926,5.4369 -23.6735,13.0324 -4.6455,-2.6364 -10.0505,-4.0672 -15.779,-3.8762 -8.0549,0.2683 -15.2547,3.6925 -20.4675,9.039902 -2.885,-1.3953 -6.134,-2.132802 -9.5593,-2.018902 -0.4152,0.016 -0.8208,0.042 -1.2275,0.082 -3.9741,-6.6032 -11.3111,-10.9155 -19.5584,-10.6399 -0.9984,0.032 -1.9773,0.1385 -2.9365,0.3002 -5.0731,-2.3252 -11.8,-3.6287 -19.1431,-3.3837 -15.4434,0.5146 -27.7371,7.6715 -27.459,15.986102 0.054,1.6796 -0.8771,2.0324 0.1164,3.5074 3.5245,-6.081302 15.3405,-9.476002 27.6623,-9.886402"
             style="fill:#e4e05c;fill-opacity:1;fill-rule:nonzero;stroke:none"
             id="path108"
             inkscape:connector-curvature="0" /></g></g></g></g></svg>