<?xml version="1.0" encoding="UTF-8" standalone="no"?>
<!-- Created with Inkscape (http://www.inkscape.org/) -->

<svg
   xmlns:dc="http://purl.org/dc/elements/1.1/"
   xmlns:cc="http://creativecommons.org/ns#"
   xmlns:rdf="http://www.w3.org/1999/02/22-rdf-syntax-ns#"
   xmlns:svg="http://www.w3.org/2000/svg"
   xmlns="http://www.w3.org/2000/svg"
   xmlns:xlink="http://www.w3.org/1999/xlink"
   xmlns:sodipodi="http://sodipodi.sourceforge.net/DTD/sodipodi-0.dtd"
   xmlns:inkscape="http://www.inkscape.org/namespaces/inkscape"
   id="svg2"
   version="1.1"
   inkscape:version="0.48.4 r9939"
   width="50"
   height="50"
   xml:space="preserve"
   sodipodi:docname="cloudIcons.svg"><metadata
     id="metadata8"><rdf:RDF><cc:Work
         rdf:about=""><dc:format>image/svg+xml</dc:format><dc:type
           rdf:resource="http://purl.org/dc/dcmitype/StillImage" /></cc:Work></rdf:RDF></metadata><defs
     id="defs6"><linearGradient
       id="linearGradient3514"><stop
         style="stop-color:#16e4ff;stop-opacity:1;"
         offset="0"
         id="stop3516" /><stop
         style="stop-color:#ccd1d8;stop-opacity:0;"
         offset="1"
         id="stop3518" /></linearGradient><radialGradient
       inkscape:collect="always"
       xlink:href="#linearGradient3514"
       id="radialGradient3522"
       cx="15.637486"
       cy="27.291958"
       fx="15.637486"
       fy="27.291958"
       r="25.269629"
       gradientUnits="userSpaceOnUse"
       gradientTransform="matrix(1.5481428,-0.01817106,0.01672583,1.4248396,2.1819163,-11.729879)" /></defs><sodipodi:namedview
     pagecolor="#ffffff"
     bordercolor="#666666"
     borderopacity="1"
     objecttolerance="10"
     gridtolerance="10"
     guidetolerance="10"
     inkscape:pageopacity="0"
     inkscape:pageshadow="2"
     inkscape:window-width="1366"
     inkscape:window-height="744"
     id="namedview4"
     showgrid="false"
     inkscape:zoom="3.9109847"
     inkscape:cx="87.702204"
     inkscape:cy="55.650195"
     inkscape:window-x="0"
     inkscape:window-y="24"
     inkscape:window-maximized="1"
     inkscape:current-layer="g12" /><g
     id="g10"
     inkscape:groupmode="layer"
     inkscape:label="ink_ext_XXXXXX"
     transform="matrix(1.25,0,0,-1.25,0,50)"><g
       id="g12"
       transform="scale(0.1,0.1)"><g
         id="g3241"
         transform="translate(15.037202,-14.976394)"><path
           inkscape:connector-curvature="0"
           id="path54"
           style="fill:#54c8f1;fill-opacity:1;fill-rule:nonzero;stroke:none"
           d="m 106.43578,227.03296 c 0,-66.4643 53.88027,-120.3409 120.3446,-120.3409 66.46428,0 120.34458,53.8766 120.34458,120.3409 0,66.4643 -53.8803,120.3446 -120.34458,120.3446 -66.46433,0 -120.3446,-53.8803 -120.3446,-120.3446" /><path
           inkscape:connector-curvature="0"
           id="path56"
           style="fill:#ffffff;fill-opacity:1;fill-rule:nonzero;stroke:none"
           d="m 226.81956,104.87526 c -66.44102,0 -120.30537,53.9685 -120.30537,120.5393 0,0.3762 0.01,0.7462 0.0147,1.1186 4.46665,14.1056 15.10771,24.3007 27.75789,25.3346 4.88931,19.545 19.46533,33.729 36.68625,33.729 14.22074,0 26.62838,-9.6757 33.28055,-24.052 2.63395,0.9702 5.41855,1.4995 8.30363,1.4995 10.86647,0 20.32899,-7.3909 25.42775,-18.3603 8.04882,-2.1121 15.1653,-7.3897 20.4992,-14.7316 2.2861,-2.0618 4.0906,-4.8893 5.1822,-8.1934 2.5444,0.8992 5.2188,1.4015 7.9924,1.4015 3.2048,0 6.2737,-0.6762 9.1599,-1.8621 1.671,9.9415 8.4494,17.5186 16.7481,18.1973 2.7932,11.1752 11.1274,19.2792 20.9697,19.2792 8.1272,0 15.2229,-5.5289 19.0255,-13.7467 1.5032,0.5525 3.0982,0.8563 4.7435,0.8563 1.0744,0 2.1268,-0.1274 3.1448,-0.3687 1.0964,-6.5371 1.6747,-13.2505 1.6747,-20.1012 0,-66.5708 -53.8631,-120.5393 -120.30539,-120.5393" /><path
           inkscape:connector-curvature="0"
           id="path58"
           style="fill:#86d7e2;fill-opacity:1;fill-rule:nonzero;stroke:none"
           d="m 107.47465,211.32986 c 0.98497,0.8441 2.15737,1.3476 3.50741,1.3476 1.38311,0 2.67312,-0.4888 3.7757,-1.3268 0.8747,8.7447 6.8237,15.512 14.04065,15.512 1.38434,0 2.7258,-0.2536 3.98886,-0.7191 3.19869,6.9132 9.16235,11.5685 15.99835,11.5685 8.27783,0 15.28653,-6.8213 17.63625,-16.225 6.97808,-0.5721 12.67838,-6.9462 14.08352,-15.3123 2.42932,0.9959 5.00935,1.5656 7.70453,1.5656 2.33134,0 4.58183,-0.4238 6.72079,-1.1773 0.91882,2.7785 2.43549,5.1576 4.35888,6.8935 4.48623,6.1794 10.46827,10.6203 17.23685,12.3979 4.29146,9.2297 12.24837,15.4495 21.38503,15.4495 2.42688,0 4.76922,-0.4472 6.98296,-1.2631 5.59493,12.0952 16.03013,20.2408 27.98813,20.2408 14.4817,0 26.7411,-11.9347 30.8537,-28.3839 12.4431,-1.0181 22.5819,-12.5767 24.7944,-27.6244 1.4726,0.5293 3.0199,0.8282 4.626,0.8282 4.3171,0 8.2386,-2.0618 11.2057,-5.4283 -2.8017,-12.8989 -7.6591,-25.0309 -14.2182,-36.0247 -22.5685,-34.1933 -57.8667,-56.8022 -97.85825,-58.6434 -0.2242,-0.012 -0.44964,-0.019 -0.67751,-0.028 -1.48232,-0.058 -2.97325,-0.096 -4.46786,-0.099 l -0.20458,0 c -0.38834,0 -0.77548,0.011 -1.16507,0.016 -0.51331,0 -1.02661,0.01 -1.53624,0.019 -43.93139,1.0462 -82.18824,27.0351 -104.68316,66.1421 -6.23688,12.3549 -10.41195,25.9313 -12.07684,40.277" /><path
           inkscape:connector-curvature="0"
           id="path60"
           style="fill:#a2e0e8;fill-opacity:1;fill-rule:nonzero;stroke:none"
           d="m 118.7993,193.03086 c 1.28756,0 2.49059,-0.4006 3.51598,-1.0854 0.81468,7.152 6.35572,12.6845 13.07652,12.6845 1.29367,0 2.53835,-0.2071 3.71936,-0.5868 2.97692,5.6549 8.53144,9.4588 14.90063,9.4588 7.70946,0 14.23543,-5.5778 16.42467,-13.2652 6.50272,-0.4692 11.8098,-5.6831 13.1194,-12.5228 2.26149,0.8147 4.66512,1.2778 7.17405,1.2778 2.17207,0 4.2694,-0.343 6.26139,-0.9617 0.85391,2.2713 2.26886,4.2192 4.05747,5.6366 4.17999,5.0547 9.75412,8.6858 16.05839,10.14 3.99498,7.5465 11.40671,12.6306 19.9161,12.6306 2.26154,0 4.44093,-0.3639 6.5064,-1.0303 5.20785,9.8925 14.9289,16.5508 26.0661,16.5508 13.4894,0 24.9059,-9.759 28.7391,-23.2079 11.5881,-0.833 21.0322,-10.287 23.0916,-22.5917 1.3709,0.4324 2.814,0.6787 4.3098,0.6787 5.1221,0 9.6512,-2.7295 12.4958,-6.9217 -17.9143,-44.0147 -61.0286,-75.0399 -111.37939,-75.0399 -53.46133,0 -98.76849,34.9785 -114.40787,83.3459 0.98497,2.8128 3.4535,4.8097 6.3545,4.8097" /><path
           inkscape:connector-curvature="0"
           id="path62"
           style="fill:#fcfcfc;fill-opacity:1;fill-rule:nonzero;stroke:none"
           d="m 23.11791,143.96516 c -0.58865,-18.6825 14.0812,-34.3047 32.76246,-34.8928 8.86101,-0.2805 17.027401,2.8716 23.236111,8.2583 3.02717,-1.9332 6.59583,-3.1056 10.44504,-3.2269 6.18788,-0.1972 11.820809,2.3546 15.738609,6.5481 5.10614,-16.0964 19.91247,-27.989496 37.74965,-28.552996 15.81458,-0.4974 29.80744,8.045096 37.04034,20.954996 4.23386,-3.7904 9.77857,-6.178 15.90763,-6.3716 8.95533,-0.2806 16.95267,4.1751 21.59941,11.1029 1.23981,-0.2107 2.50286,-0.348 3.79778,-0.3896 14.94718,-0.4704 27.44424,11.2634 27.91712,26.2106 0.47044,14.9472 -11.26338,27.4455 -26.21062,27.9172 -4.94198,0.1555 -9.61442,-1.0315 -13.67556,-3.2195 0.0428,19.6919 -15.5769,35.972 -35.39015,36.5968 -0.62965,0.019 -1.25693,0.024 -1.88295,0.011 -4.33189,14.3359 -17.41081,24.977 -33.20702,25.4756 -19.80589,0.6236 -36.36531,-14.9227 -36.99132,-34.7298 -0.0245,-0.8012 -0.0147,-1.5963 0.0147,-2.3902 -2.801759,1.6123 -6.029849,2.5813 -9.485799,2.6903 -11.21072,0.3529 -20.58381,-8.4481 -20.93786,-19.6552 -0.0319,-0.9923 0.0147,-1.9687 0.12006,-2.9254 -4.142001,2.003 -8.754431,3.1974 -13.652301,3.3506 -18.68126,0.5904 -34.30594,-14.0799 -34.89533,-32.7624" /><path
           inkscape:connector-curvature="0"
           id="path64"
           style="fill:#85d6d9;fill-opacity:1;fill-rule:nonzero;stroke:none"
           d="m 55.89629,109.56366 c 8.85979,-0.2806 17.027401,2.8728 23.236121,8.2583 3.02717,-1.9344 6.5946,-3.1069 10.44503,-3.2269 6.18666,-0.196 11.819579,2.3546 15.737389,6.5456 5.10737,-16.0927 19.91246,-27.986996 37.75088,-28.550496 15.81458,-0.4986 29.80744,8.046296 37.03909,20.953796 4.23511,-3.7917 9.77982,-6.1757 15.90769,-6.3705 8.95653,-0.2805 16.95386,4.1775 21.60185,11.1054 1.23856,-0.2156 2.50281,-0.3492 3.79528,-0.392 13.23824,-0.4178 24.54817,8.7446 27.29115,21.2257 0.25113,-1.6269 0.36504,-3.3016 0.31236,-5.0118 -0.47287,-14.9472 -12.97237,-26.6773 -27.91836,-26.2094 -1.29367,0.043 -2.55797,0.1789 -3.79653,0.3933 -4.64794,-6.9315 -12.64402,-11.385896 -21.59942,-11.105296 -6.12906,0.1935 -11.67377,2.575 -15.90887,6.372796 -7.2329,-12.914796 -21.22576,-21.454896 -37.04034,-20.956196 -17.83716,0.5623 -32.64226,12.4541 -37.7484,28.551696 -3.91781,-4.1898 -9.551959,-6.7404 -15.739839,-6.5468 -3.8492,0.1213 -7.41786,1.2924 -10.44504,3.2269 -6.20748,-5.3867 -14.376321,-8.541396 -23.236111,-8.260796 -18.68003,0.589296 -33.35148,16.207896 -32.76245,34.891496 0.0546,1.7029 0.23545,3.3641 0.52886,4.9886 1.90304,-16.3904 15.56759,-29.3493 32.54966,-29.8834" /><path
           inkscape:connector-curvature="0"
           id="path66"
           style="fill:#b0e5ed;fill-opacity:1;fill-rule:nonzero;stroke:none"
           d="m 151.67189,147.85596 c -11.25969,0.3541 -20.83985,-7.5452 -22.98864,-18.2329 -0.16783,1.2435 -0.26217,2.5078 -0.22174,3.8027 0.39692,12.5558 10.8934,22.4116 23.44806,22.0159 12.55342,-0.3957 22.4104,-10.8934 22.01469,-23.4492 -0.0417,-1.2937 -0.21438,-2.5519 -0.45938,-3.7806 -1.47256,10.8003 -10.53694,19.2888 -21.79299,19.6441" /><path
           inkscape:connector-curvature="0"
           id="path68"
           style="fill:#b0e5ed;fill-opacity:1;fill-rule:nonzero;stroke:none"
           d="m 50.26828,151.05226 c -11.25728,0.354 -20.83986,-7.5441 -22.9862,-18.2329 -0.16906,1.2447 -0.26339,2.509 -0.22419,3.8039 0.3957,12.5546 10.89587,22.4104 23.44927,22.0159 12.55463,-0.3969 22.409181,-10.8946 22.014711,-23.4493 -0.0417,-1.2949 -0.21439,-2.5518 -0.46308,-3.7806 -1.468881,10.8004 -10.532021,19.2877 -21.790511,19.643" /><path
           inkscape:connector-curvature="0"
           id="path70"
           style="fill:#b0e5ed;fill-opacity:1;fill-rule:nonzero;stroke:none"
           d="m 138.10411,203.68416 c -11.2597,0.3553 -20.83984,-7.5441 -22.98618,-18.2317 -0.16906,1.2435 -0.26339,2.5078 -0.22296,3.8027 0.39692,12.5546 10.89341,22.4116 23.44807,22.0147 12.55461,-0.3957 22.4104,-10.8922 22.01344,-23.4493 -0.0406,-1.2936 -0.21314,-2.5494 -0.46063,-3.7794 -1.47007,10.8004 -10.53444,19.2877 -21.79174,19.643" /><path
           inkscape:connector-curvature="0"
           id="path72"
           style="fill:#b0e5ed;fill-opacity:1;fill-rule:nonzero;stroke:none"
           d="m 95.245891,171.52946 c -11.25849,0.354 -20.83862,-7.5465 -22.98864,-18.2317 -0.16906,1.2398 -0.26216,2.5078 -0.22051,3.8039 0.3957,12.5522 10.89464,22.4092 23.44804,22.0135 12.553409,-0.3957 22.409179,-10.8946 22.013479,-23.448 -0.0417,-1.295 -0.21439,-2.5543 -0.46063,-3.7819 -1.4701,10.8003 -10.53447,19.2889 -21.791739,19.6442" /><path
           inkscape:connector-curvature="0"
           id="path74"
           style="fill:#b0e5ed;fill-opacity:1;fill-rule:nonzero;stroke:none"
           d="m 210.38513,151.60596 c -11.25731,0.3553 -20.83862,-7.5441 -22.98863,-18.2316 -0.16789,1.2434 -0.26218,2.5089 -0.22056,3.8026 0.39571,12.5546 10.89346,22.4117 23.44931,22.0147 12.55336,-0.3945 22.40796,-10.8922 22.01225,-23.4481 -0.0406,-1.2936 -0.21438,-2.5518 -0.46063,-3.7806 -1.46887,10.8004 -10.53324,19.289 -21.79174,19.643" /><path
           inkscape:connector-curvature="0"
           id="path76"
           style="fill:#b0e5ed;fill-opacity:1;fill-rule:nonzero;stroke:none"
           d="m 175.33434,176.73236 c -7.15205,0.2242 -13.23943,-4.795 -14.60421,-11.5856 -0.10659,0.7902 -0.16658,1.5926 -0.1409,2.4171 0.25238,7.9753 6.92049,14.2379 14.89701,13.9868 7.97652,-0.2512 14.24036,-6.9218 13.98918,-14.897 -0.0271,-0.8245 -0.13841,-1.6232 -0.294,-2.4049 -0.93351,6.8642 -6.6926,12.257 -13.84708,12.4836" /><path
           inkscape:connector-curvature="0"
           id="path78"
           style="fill:#b0e5ed;fill-opacity:1;fill-rule:nonzero;stroke:none"
           d="m 130.50617,163.50396 c -7.15325,0.2254 -13.23945,-4.7913 -14.60419,-11.5819 -0.10903,0.7877 -0.16539,1.5938 -0.13966,2.4134 0.25114,7.9765 6.92171,14.2391 14.89576,13.988 7.9777,-0.2524 14.2391,-6.9217 13.98922,-14.8983 -0.0271,-0.822 -0.13721,-1.6195 -0.29404,-2.3999 -0.93227,6.8617 -6.69261,12.2533 -13.84709,12.4787" /><path
           inkscape:connector-curvature="0"
           id="path80"
           style="fill:#b0e5ed;fill-opacity:1;fill-rule:nonzero;stroke:none"
           d="m 183.04131,133.71126 c -7.15199,0.2266 -13.23943,-4.7926 -14.60296,-11.5844 -0.1066,0.7901 -0.16783,1.595 -0.14209,2.4183 0.25112,7.9765 6.92167,14.2391 14.89819,13.9867 7.97652,-0.2511 14.23911,-6.9217 13.98674,-14.8994 -0.026,-0.8196 -0.13353,-1.622 -0.29155,-2.4012 -0.93476,6.8642 -6.6926,12.2533 -13.84833,12.48" /><path
           inkscape:connector-curvature="0"
           id="path82"
           style="fill:#b0e5ed;fill-opacity:1;fill-rule:nonzero;stroke:none"
           d="m 94.247451,139.91986 c -7.15447,0.2267 -13.24067,-4.7924 -14.60419,-11.5819 -0.10903,0.7878 -0.16661,1.5927 -0.14088,2.4147 0.25114,7.9777 6.92171,14.2403 14.8982,13.9879 7.976509,-0.2511 14.239119,-6.9229 13.985529,-14.8969 -0.0245,-0.822 -0.13476,-1.622 -0.29279,-2.4024 -0.93229,6.8616 -6.69262,12.2544 -13.845869,12.4786" /></g></g></g></svg>