<?xml version="1.0" encoding="UTF-8" standalone="no"?>
<!-- Created with Inkscape (http://www.inkscape.org/) -->

<svg
   xmlns:dc="http://purl.org/dc/elements/1.1/"
   xmlns:cc="http://creativecommons.org/ns#"
   xmlns:rdf="http://www.w3.org/1999/02/22-rdf-syntax-ns#"
   xmlns:svg="http://www.w3.org/2000/svg"
   xmlns="http://www.w3.org/2000/svg"
   xmlns:xlink="http://www.w3.org/1999/xlink"
   xmlns:sodipodi="http://sodipodi.sourceforge.net/DTD/sodipodi-0.dtd"
   xmlns:inkscape="http://www.inkscape.org/namespaces/inkscape"
   id="svg2"
   version="1.1"
   inkscape:version="0.48.4 r9939"
   width="50"
   height="50"
   xml:space="preserve"
   sodipodi:docname="Night.svg"><metadata
     id="metadata8"><rdf:RDF><cc:Work
         rdf:about=""><dc:format>image/svg+xml</dc:format><dc:type
           rdf:resource="http://purl.org/dc/dcmitype/StillImage" /><dc:title /></cc:Work></rdf:RDF></metadata><defs
     id="defs6"><linearGradient
       id="linearGradient3802"><stop
         id="stop3804"
         offset="0"
         style="stop-color:#faff21;stop-opacity:1;" /><stop
         style="stop-color:#e3e87c;stop-opacity:0.49803922;"
         offset="0.61987585"
         id="stop3806" /><stop
         id="stop3808"
         offset="1"
         style="stop-color:#ccd1d8;stop-opacity:0;" /></linearGradient><linearGradient
       id="linearGradient3778"><stop
         style="stop-color:#ffef33;stop-opacity:1;"
         offset="0"
         id="stop3780" /><stop
         id="stop3786"
         offset="0.67312616"
         style="stop-color:#a8a870;stop-opacity:0.49803922;" /><stop
         style="stop-color:#fff300;stop-opacity:0;"
         offset="1"
         id="stop3782" /></linearGradient><linearGradient
       id="linearGradient3514"><stop
         style="stop-color:#faff21;stop-opacity:1;"
         offset="0"
         id="stop3516" /><stop
         id="stop3800"
         offset="0.5"
         style="stop-color:#e3e87c;stop-opacity:0.49803922;" /><stop
         style="stop-color:#ccd1d8;stop-opacity:0;"
         offset="1"
         id="stop3518" /></linearGradient><radialGradient
       inkscape:collect="always"
       xlink:href="#linearGradient3514"
       id="radialGradient3522"
       cx="15.637486"
       cy="27.291958"
       fx="15.637486"
       fy="27.291958"
       r="25.269629"
       gradientUnits="userSpaceOnUse"
       gradientTransform="matrix(1.5481428,-0.01817106,0.01672583,1.4248396,2.1819163,-11.729879)" /><radialGradient
       inkscape:collect="always"
       xlink:href="#linearGradient3778"
       id="radialGradient3784"
       cx="61.374828"
       cy="25.502684"
       fx="61.374828"
       fy="25.502684"
       r="25.824697"
       gradientUnits="userSpaceOnUse"
       gradientTransform="matrix(-1.3366339,-0.81188133,0.51914331,-0.8546872,127.34917,96.056889)" /><radialGradient
       inkscape:collect="always"
       xlink:href="#linearGradient3802"
       id="radialGradient3798"
       cx="24.162712"
       cy="24.303146"
       fx="24.162712"
       fy="24.303146"
       r="25.185472"
       gradientTransform="matrix(0.99951711,-0.03107307,0.03045685,0.9796955,-0.72852955,1.2442741)"
       gradientUnits="userSpaceOnUse" /></defs><sodipodi:namedview
     pagecolor="#ffffff"
     bordercolor="#666666"
     borderopacity="1"
     objecttolerance="10"
     gridtolerance="10"
     guidetolerance="10"
     inkscape:pageopacity="0"
     inkscape:pageshadow="2"
     inkscape:window-width="1366"
     inkscape:window-height="744"
     id="namedview4"
     showgrid="false"
     inkscape:zoom="3.9109847"
     inkscape:cx="41.294454"
     inkscape:cy="55.650195"
     inkscape:window-x="0"
     inkscape:window-y="24"
     inkscape:window-maximized="1"
     inkscape:current-layer="g12" /><g
     id="g10"
     inkscape:groupmode="layer"
     inkscape:label="ink_ext_XXXXXX"
     transform="matrix(1.25,0,0,-1.25,0,50)"><g
       id="g12"
       transform="scale(0.1,0.1)"><rect
         style="fill:url(#radialGradient3798);fill-opacity:1;stroke:none"
         id="rect3788"
         width="50.370945"
         height="51.905087"
         x="-1.0227603"
         y="-1.6493967"
         transform="matrix(8,0,0,-8,0,400)" /><g
         id="g3154"
         transform="translate(12.574948,-6.1395781)"><path
           inkscape:connector-curvature="0"
           id="path110"
           style="fill:#c7ccc9;fill-opacity:1;fill-rule:nonzero;stroke:none"
           d="m 365.97602,228.11375 c 0,-66.4631 -53.879,-120.3421 -120.34337,-120.3421 -66.46551,0 -120.34579,53.879 -120.34579,120.3421 0,66.468 53.88028,120.3446 120.34579,120.3446 66.46437,0 120.34337,-53.8766 120.34337,-120.3446" /><path
           inkscape:connector-curvature="0"
           id="path112"
           style="fill:#959796;fill-opacity:1;fill-rule:nonzero;stroke:none"
           d="m 246.19007,107.00345 c 66.44355,0 120.30535,53.9697 120.30535,120.5406 0,0.3749 -0.011,0.7473 -0.014,1.1197 -4.4691,14.1044 -15.109,24.2983 -27.7579,25.3335 -4.8893,19.5449 -19.4665,33.7289 -36.6863,33.7289 -14.222,0 -26.6283,-9.6744 -33.2818,-24.0532 -2.63386,0.9703 -5.41971,1.4995 -8.30354,1.4995 -10.86647,0 -20.32899,-7.3897 -25.42781,-18.3579 -8.04751,-2.1144 -15.16525,-7.3896 -20.49926,-14.734 -2.28479,-2.0618 -4.08933,-4.8893 -5.18211,-8.1921 -2.54567,0.8968 -5.2188,1.4014 -7.9924,1.4014 -3.20362,0 -6.27365,-0.6762 -9.15991,-1.8645 -1.67226,9.9415 -8.4494,17.5224 -16.74691,18.201 -2.79441,11.1728 -11.1274,19.2767 -20.97089,19.2767 -8.12843,0 -15.22287,-5.5288 -19.0243,-13.743 -1.5044,0.5489 -3.09945,0.8527 -4.74596,0.8527 -1.07562,0 -2.12429,-0.1262 -3.14356,-0.3676 -1.09522,-6.5357 -1.67346,-13.2516 -1.67346,-20.1011 0,-66.5709 53.86189,-120.5406 120.30416,-120.5406" /><path
           inkscape:connector-curvature="0"
           id="path114"
           style="fill:#a5a8a6;fill-opacity:1;fill-rule:nonzero;stroke:none"
           d="m 365.53622,213.45815 c -0.985,0.8465 -2.1586,1.35 -3.5062,1.35 -1.3855,0 -2.6756,-0.4913 -3.7781,-1.3292 -0.8747,8.7446 -6.8225,15.5119 -14.0395,15.5119 -1.3855,0 -2.7245,-0.2511 -3.99,-0.7191 -3.1987,6.9119 -9.1612,11.5684 -15.9984,11.5684 -8.2778,0 -15.2865,-6.8212 -17.6362,-16.2249 -6.9793,-0.5709 -12.6771,-6.9462 -14.0835,-15.3111 -2.4294,0.996 -5.0106,1.5657 -7.7034,1.5657 -2.3325,0 -4.583,-0.4227 -6.722,-1.1773 -0.9176,2.776 -2.4354,5.1576 -4.3576,6.8947 -4.4875,6.1769 -10.46954,10.619 -17.23932,12.3978 -4.28902,9.2286 -12.24712,15.4459 -21.38378,15.4459 -2.42688,0 -4.76679,-0.4435 -6.98297,-1.2606 -5.59494,12.0952 -16.03021,20.2395 -27.98941,20.2395 -14.47924,0 -26.73985,-11.936 -30.85248,-28.3814 -12.44314,-1.0193 -22.58067,-12.5791 -24.79316,-27.6268 -1.475,0.528 -3.02105,0.8306 -4.62713,0.8306 -4.31719,0 -8.23867,-2.0631 -11.20459,-5.4259 2.80176,-12.9038 7.65921,-25.0346 14.21584,-36.0284 22.56964,-34.1908 57.86668,-56.8058 97.85821,-58.6471 0.22664,-0.01 0.45207,-0.018 0.67995,-0.027 1.48112,-0.058 2.97205,-0.094 4.46786,-0.097 l 0.20338,0 c 0.38954,0 0.77668,0.01 1.16502,0.014 0.51331,0 1.02542,0.01 1.53505,0.018 43.93143,1.0475 82.18943,27.0375 104.68433,66.1446 6.2369,12.3537 10.412,25.9313 12.0781,40.2757" /><path
           inkscape:connector-curvature="0"
           id="path116"
           style="fill:#b8bab3;fill-opacity:1;fill-rule:nonzero;stroke:none"
           d="m 354.21032,195.15905 c -1.2875,0 -2.4893,-0.3982 -3.516,-1.0842 -0.8134,7.152 -6.3569,12.687 -13.0764,12.687 -1.2913,0 -2.5372,-0.2083 -3.7181,-0.5906 -2.9795,5.6526 -8.534,9.4589 -14.9007,9.4589 -7.7094,0 -14.2355,-5.5765 -16.4271,-13.2627 -6.5003,-0.4717 -11.8086,-5.6844 -13.1182,-12.5265 -2.2603,0.8159 -4.6664,1.279 -7.1728,1.279 -2.1734,0 -4.2695,-0.3405 -6.2626,-0.9605 -0.8552,2.2726 -2.2677,4.218 -4.0576,5.6367 -4.1799,5.0522 -9.75159,8.687 -16.05705,10.1387 -3.99503,7.5465 -11.40796,12.6343 -19.91615,12.6343 -2.2603,0 -4.44218,-0.3651 -6.5064,-1.0328 -5.20905,9.8938 -14.92887,16.5521 -26.06728,16.5521 -13.48936,0 -24.90713,-9.7602 -28.73796,-23.2079 -11.58924,-0.8355 -21.03338,-10.287 -23.09398,-22.5942 -1.3709,0.4349 -2.81159,0.6787 -4.30862,0.6787 -5.12084,0 -9.65119,-2.727 -12.4946,-6.9205 17.91437,-44.0172 61.02742,-75.0411 111.37824,-75.0411 53.4625,0 98.7684,34.981 114.4066,83.3472 -0.9837,2.8103 -3.451,4.8084 -6.3533,4.8084" /><path
           inkscape:connector-curvature="0"
           id="path118"
           style="fill:#c7ccc9;fill-opacity:1;fill-rule:nonzero;stroke:none"
           d="m 240.36725,121.69955 c -1.40027,12.7078 -12.83635,21.8726 -25.54047,20.4711 -5.9343,-0.6554 -11.07474,-3.5172 -14.74874,-7.6556 -0.16414,0.1532 -0.34303,0.2941 -0.51206,0.4436 1.94663,4.4163 3.03573,9.2946 3.03573,14.4301 0,19.779 -16.03509,35.8141 -35.81522,35.8141 -7.64942,0 -14.73161,-2.4061 -20.54953,-6.4905 -2.18432,0.077 -4.39191,0.1127 -6.61911,0.1041 -6.44393,9.4822 -17.31652,15.7141 -29.6445,15.7141 -19.781385,0 -35.814015,-16.0351 -35.814015,-35.814 0,-0.2193 0.011,-0.4324 0.0147,-0.648 -3.11539,0.4863 -6.33858,0.5929 -9.62179,0.2303 -20.0362,-2.2101 -34.48664,-20.2433 -32.27806,-40.277 2.20845,-20.037402 20.24164,-34.489702 40.27906,-32.279702 4.33311,0.4778 8.40283,1.698 12.10135,3.5173 5.6023,-7.8896 15.19346,-12.5865 25.493935,-11.4497 3.61031,0.397 6.97561,1.48 9.99053,3.0983 6.4721,-4.4324 14.49638,-6.6608 22.90289,-5.7347 12.70898,1.4016 23.00091,9.6488 27.61942,20.6586 4.44705,-2.705 9.78599,-4.0219 15.35888,-3.407 6.73423,0.7425 12.52274,4.1543 16.43443,9.065602 4.67737,-3.947102 10.88609,-6.054302 17.44392,-5.330302 12.70532,1.4003 21.87016,12.835202 20.46865,25.539302" /><path
           inkscape:connector-curvature="0"
           id="path120"
           style="fill:#b7c1bd;fill-opacity:1;fill-rule:nonzero;stroke:none"
           d="m 258.24118,107.99825 c 0.8331,-7.5526 -4.61607,-14.348202 -12.16746,-15.181202 -7.55019,-0.8331 -14.34695,4.6136 -15.17999,12.165002 -0.83304,7.5527 4.61488,14.3482 12.16508,15.1812 7.55257,0.8319 14.34933,-4.6136 15.18237,-12.165" /><path
           inkscape:connector-curvature="0"
           id="path122"
           style="fill:#c7ccc9;fill-opacity:1;fill-rule:nonzero;stroke:none"
           d="m 48.537995,119.82885 c 1.21895,-11.0637 -6.76,-21.019902 -17.8215,-22.240102 -11.06211,-1.2202 -21.0192003,6.760002 -22.2386503,17.822402 -1.21981,11.0637 6.7590203,21.0188 17.8216203,22.239 11.06261,1.2201 21.01835,-6.7588 22.23853,-17.8213" /><path
           inkscape:connector-curvature="0"
           id="path124"
           style="fill:#a5a8a6;fill-opacity:1;fill-rule:nonzero;stroke:none"
           d="m 38.644115,104.60235 c -2.46694,-1.529 -5.30521,-2.5445 -8.38372,-2.8839 -9.55893,-1.0548 -18.27857,4.7668 -21.2632403,13.5041 -0.15938,-1.4444 -0.17665,-2.9218 -0.0105,-4.4238 C 10.206465,99.735048 20.162585,91.756048 31.226165,92.976248 c 4.91086,0.5403 9.2153,2.8055 12.37601,6.123" /><path
           inkscape:connector-curvature="0"
           id="path126"
           style="fill:#a5a8a6;fill-opacity:1;fill-rule:nonzero;stroke:none"
           d="m 219.29957,101.60705 c -6.56032,-0.7241 -12.7678,1.3855 -17.44392,5.3266 -3.91293,-4.9077 -9.70264,-8.319602 -16.43568,-9.061902 -5.57413,-0.6138 -10.91302,0.7007 -15.36007,3.405702 -4.61732,-11.009802 -14.90925,-19.258302 -27.61946,-20.659802 -8.40651,-0.9262 -16.42956,1.3048 -22.90166,5.7371 -3.01493,-1.6208 -6.38145,-2.7038 -9.99176,-3.1019 -10.298025,-1.1344 -19.891635,3.5637 -25.492705,11.4532 -3.69852,-1.8179 -7.76947,-3.0406 -12.10258,-3.5171 -17.18053,-1.8952 -32.87786,8.4665 -38.39942,24.089902 -0.32869,-2.7343 -0.3636,-5.5459 -0.0498,-8.4016 2.20992,-20.036202 20.24324,-34.488502 40.27821,-32.278402 4.33311,0.4766 8.40406,1.6979 12.1038,3.5172 5.59984,-7.8883 15.193445,-12.5877 25.492705,-11.4521 3.61031,0.397 6.97561,1.4812 9.99176,3.1008 6.47087,-4.4312 14.49393,-6.663299 22.90043,-5.7371 12.71145,1.4015 23.00089,9.6462 27.62189,20.6573 4.44461,-2.7037 9.78594,-4.0195 15.35764,-3.4057 6.73303,0.7411 12.52274,4.1566 16.43567,9.0668 4.67737,-3.9472 10.8836,-6.0544 17.44392,-5.3304 12.70532,1.4003 21.86891,12.8364 20.46865,25.540602 -0.32342,2.9291 -1.20057,5.6574 -2.482,8.1235 -2.38277,-8.9652 -10.03955,-15.9935 -19.81568,-17.0727" /><path
           inkscape:connector-curvature="0"
           id="path128"
           style="fill:#a5a8a6;fill-opacity:1;fill-rule:nonzero;stroke:none"
           d="m 258.00111,106.74745 c -1.20306,-5.2813 -5.61949,-9.468702 -11.30629,-10.094702 -6.12787,-0.6762 -11.71788,3.0027 -13.72093,8.557202 -0.31361,-1.3831 -0.42264,-2.8398 -0.256,-4.3319 0.79017,-7.179002 7.25121,-12.354902 14.429,-11.564802 7.17648,0.7914 12.35372,7.2513 11.5623,14.430302 -0.11516,1.0499 -0.36629,2.0508 -0.70808,3.0039" /><path
           inkscape:connector-curvature="0"
           id="path130"
           style="fill:#a5a8a6;fill-opacity:1;fill-rule:nonzero;stroke:none"
           d="m 99.686345,142.41935 c 11.260945,0.185 20.721015,-7.8601 22.704425,-18.5808 0.18866,1.241 0.30014,2.504 0.28054,3.8002 -0.20582,12.5595 -10.55162,22.5733 -23.108695,22.3699 -12.55953,-0.2045 -22.57457,-10.5503 -22.3712,-23.1087 0.0208,-1.2961 0.17518,-2.553 0.40305,-3.7891 1.63426,10.7795 10.82849,19.1247 22.09188,19.3085" /><path
           inkscape:connector-curvature="0"
           id="path132"
           style="fill:#a5a8a6;fill-opacity:1;fill-rule:nonzero;stroke:none"
           d="m 141.06712,110.69095 c 11.19602,1.2337 21.36417,-5.8902 24.34116,-16.378102 0.071,1.252 0.0649,2.5212 -0.0772,3.81 -1.37572,12.483602 -12.6134,21.489102 -25.09576,20.112202 -12.48602,-1.3771 -21.49037,-12.6147 -20.1146,-25.094602 0.14333,-1.2925 0.41408,-2.531 0.75588,-3.7377 0.62111,10.884802 8.99331,20.053302 20.19055,21.288202" /><path
           inkscape:connector-curvature="0"
           id="path134"
           style="fill:#a5a8a6;fill-opacity:1;fill-rule:nonzero;stroke:none"
           d="m 115.3343,174.73575 c 10.11794,1.1148 19.30605,-5.323 21.99632,-14.799 0.0649,1.132 0.0588,2.2775 -0.0698,3.4425 -1.24468,11.2818 -11.39693,19.4163 -22.6787,18.1741 -11.28055,-1.2435 -19.416305,-11.3982 -18.174065,-22.6775 0.12863,-1.1651 0.37487,-2.286 0.68237,-3.3739 0.56108,9.8338 8.127175,18.119 18.243895,19.2338" /><path
           inkscape:connector-curvature="0"
           id="path136"
           style="fill:#a5a8a6;fill-opacity:1;fill-rule:nonzero;stroke:none"
           d="m 183.93392,116.92045 c 8.2975,0.9152 15.83295,-4.3661 18.03933,-12.1381 0.0526,0.9287 0.0477,1.8695 -0.0576,2.8251 -1.01924,9.2505 -9.34611,15.9248 -18.59913,14.9031 -9.25182,-1.0193 -15.92361,-9.3474 -14.90437,-18.5968 0.10535,-0.9567 0.30748,-1.8755 0.55986,-2.7699 0.46187,8.0672 6.66447,14.8615 14.96192,15.7766" /><path
           inkscape:connector-curvature="0"
           id="path138"
           style="fill:#a5a8a6;fill-opacity:1;fill-rule:nonzero;stroke:none"
           d="m 95.214795,111.50315 c 6.472105,0.713 12.347595,-3.4045 14.067605,-9.4625 0.0404,0.7216 0.038,1.4566 -0.0441,2.1991 -0.79631,7.2169 -7.28801,12.4198 -14.502505,11.6223 -7.21573,-0.7939 -12.41864,-7.288 -11.62234,-14.5013 0.0821,-0.7461 0.23889,-1.461602 0.43612,-2.157402 0.35896,6.287202 5.1968,11.585602 11.66522,12.299802" /><path
           inkscape:connector-curvature="0"
           id="path140"
           style="fill:#a5a8a6;fill-opacity:1;fill-rule:nonzero;stroke:none"
           d="m 159.14932,134.19045 c 6.46965,0.713 12.34634,-3.4045 14.0664,-9.465 0.0406,0.7253 0.0379,1.4567 -0.0439,2.2027 -0.79629,7.2145 -7.28801,12.4175 -14.50254,11.6224 -7.21447,-0.7951 -12.41862,-7.2868 -11.62232,-14.505 0.0821,-0.7424 0.23889,-1.4603 0.43735,-2.1574 0.35773,6.2896 5.19557,11.5881 11.66522,12.3023" /><path
           inkscape:connector-curvature="0"
           id="path142"
           style="fill:#a5a8a6;fill-opacity:1;fill-rule:nonzero;stroke:none"
           d="m 244.61097,112.30195 c 4.30491,0.4729 8.21172,-2.2627 9.35717,-6.2945 0.0282,0.4791 0.0255,0.9666 -0.0293,1.464 -0.52924,4.7998 -4.84639,8.2595 -9.64629,7.7303 -4.79983,-0.5281 -8.2607,-4.8477 -7.73146,-9.6463 0.0551,-0.4974 0.15927,-0.9752 0.29031,-1.4358 0.23768,4.1848 3.45598,7.7069 7.7597,8.1823" /><path
           inkscape:connector-curvature="0"
           id="path144"
           style="fill:#a5a8a6;fill-opacity:1;fill-rule:nonzero;stroke:none"
           d="m 165.46339,161.69725 c 8.36361,-0.2218 15.12607,-6.4881 16.25928,-14.5062 0.17764,0.9139 0.30136,1.8474 0.3271,2.8115 0.24744,9.3229 -7.11286,17.085 -16.43692,17.3312 -9.32655,0.2463 -17.0862,-7.1165 -17.33125,-16.4393 -0.0244,-0.9629 0.0477,-1.9014 0.17889,-2.8238 1.5546,7.9458 8.63928,13.8471 17.0029,13.6266" /><path
           inkscape:connector-curvature="0"
           id="path146"
           style="fill:#a5a8a6;fill-opacity:1;fill-rule:nonzero;stroke:none"
           d="m 216.85432,134.98425 c 5.92204,0.6531 11.30136,-3.1153 12.87558,-8.6637 0.0368,0.6628 0.0341,1.3317 -0.0406,2.0165 -0.72769,6.6044 -6.67304,11.3675 -13.27623,10.6398 -6.60319,-0.7277 -11.36748,-6.673 -10.63859,-13.2762 0.076,-0.6836 0.21806,-1.339 0.39939,-1.9785 0.3283,5.7603 4.75698,10.6104 10.68027,11.2621" /><path
           inkscape:connector-curvature="0"
           id="path148"
           style="fill:#a5a8a6;fill-opacity:1;fill-rule:nonzero;stroke:none"
           d="m 47.328835,130.79575 c 8.86346,0.9776 16.91347,-4.6626 19.27053,-12.9638 0.0564,0.9911 0.0514,1.9932 -0.06,3.0174 -1.09032,9.879 -9.98686,17.0102 -19.86836,15.9211 -9.88555,-1.0903 -17.01307,-9.9881 -15.92238,-19.8695 0.11197,-1.0205 0.32538,-2.0018 0.59674,-2.9562 0.49137,8.6148 7.1198,15.8746 15.9835,16.851" /></g></g></g></svg>