<?xml version="1.0" encoding="UTF-8" standalone="no"?>
<!-- Created with Inkscape (http://www.inkscape.org/) -->

<svg
   xmlns:dc="http://purl.org/dc/elements/1.1/"
   xmlns:cc="http://creativecommons.org/ns#"
   xmlns:rdf="http://www.w3.org/1999/02/22-rdf-syntax-ns#"
   xmlns:svg="http://www.w3.org/2000/svg"
   xmlns="http://www.w3.org/2000/svg"
   xmlns:sodipodi="http://sodipodi.sourceforge.net/DTD/sodipodi-0.dtd"
   xmlns:inkscape="http://www.inkscape.org/namespaces/inkscape"
   id="svg2"
   version="1.1"
   inkscape:version="0.48.4 r9939"
   width="1024"
   height="1024"
   sodipodi:docname="notifyme.svg">
  <metadata
     id="metadata8">
    <rdf:RDF>
      <cc:Work
         rdf:about="">
        <dc:format>image/svg+xml</dc:format>
        <dc:type
           rdf:resource="http://purl.org/dc/dcmitype/StillImage" />
        <dc:title />
      </cc:Work>
    </rdf:RDF>
  </metadata>
  <defs
     id="defs6">
    <clipPath
       id="clipPath-920662187">
      <g
         id="g2999"
         transform="translate(0,-1004.3622)">
        <path
           id="path3001"
           fill="#1890d0"
           transform="matrix(15.333333,0,0,11.5,414.99999,878.8622)"
           d="m -24 13 c 0 1.105 -0.672 2 -1.5 2 -0.828 0 -1.5 -0.895 -1.5 -2 0 -1.105 0.672 -2 1.5 -2 0.828 0 1.5 0.895 1.5 2 z" />
      </g>
    </clipPath>
    <clipPath
       id="clipPath-900858965">
      <g
         id="g2994"
         transform="translate(0,-1004.3622)">
        <path
           id="path2996"
           fill="#1890d0"
           transform="matrix(15.333333,0,0,11.5,414.99999,878.8622)"
           d="m -24 13 c 0 1.105 -0.672 2 -1.5 2 -0.828 0 -1.5 -0.895 -1.5 -2 0 -1.105 0.672 -2 1.5 -2 0.828 0 1.5 0.895 1.5 2 z" />
      </g>
    </clipPath>
    <linearGradient
       gradientUnits="userSpaceOnUse"
       y2="1"
       x2="0"
       y1="47"
       id="linearGradient3764">
      <stop
         id="stop2989"
         stop-opacity="1"
         stop-color="#e3252a" />
      <stop
         id="stop2991"
         stop-opacity="1"
         stop-color="#e5373b"
         offset="1" />
    </linearGradient>
  </defs>
  <sodipodi:namedview
     pagecolor="#ffffff"
     bordercolor="#666666"
     borderopacity="1"
     objecttolerance="10"
     gridtolerance="10"
     guidetolerance="10"
     inkscape:pageopacity="0"
     inkscape:pageshadow="2"
     inkscape:window-width="1366"
     inkscape:window-height="744"
     id="namedview4"
     showgrid="false"
     inkscape:zoom="0.65186406"
     inkscape:cx="805.57971"
     inkscape:cy="543.46886"
     inkscape:window-x="0"
     inkscape:window-y="24"
     inkscape:window-maximized="1"
     inkscape:current-layer="svg2" />
  <g
     id="g3015"
     transform="matrix(17.986657,0,0,17.986657,1156.0736,-167.31717)" />
  <rect
     style="fill:#f44800;fill-rule:evenodd;stroke:none;stroke-width:1px;stroke-linecap:butt;stroke-linejoin:miter;stroke-opacity:1;fill-opacity:1"
     id="rect2982"
     width="911.18646"
     height="928.54236"
     x="56.40675"
     y="52.067795"
     ry="111" />
  <path
     style="fill:#eeeeee"
     d="M 169.21875 225.625 L 169.21875 572.28125 L 169.15625 572.25 L 169.15625 689.90625 L 169.15625 807.53125 L 378.96875 646.5 L 867.78125 646.5 L 867.78125 225.625 L 169.21875 225.625 z M 223.96875 311.25 L 816.125 311.25 L 816.125 371.53125 L 223.96875 371.53125 L 223.96875 311.25 z M 223.96875 396.21875 L 816.125 396.21875 L 816.125 456.5 L 223.96875 456.5 L 223.96875 396.21875 z M 223.96875 481.1875 L 816.125 481.1875 L 816.125 541.46875 L 223.96875 541.46875 L 223.96875 481.1875 z "
     id="rect3015" />
</svg>
