<?xml version="1.0" encoding="UTF-8" standalone="no"?>
<!-- Created with Inkscape (http://www.inkscape.org/) -->

<svg
   xmlns:dc="http://purl.org/dc/elements/1.1/"
   xmlns:cc="http://creativecommons.org/ns#"
   xmlns:rdf="http://www.w3.org/1999/02/22-rdf-syntax-ns#"
   xmlns:svg="http://www.w3.org/2000/svg"
   xmlns="http://www.w3.org/2000/svg"
   xmlns:sodipodi="http://sodipodi.sourceforge.net/DTD/sodipodi-0.dtd"
   xmlns:inkscape="http://www.inkscape.org/namespaces/inkscape"
   id="svg2"
   version="1.1"
   inkscape:version="0.91 r13725"
   width="1024"
   height="1024"
   sodipodi:docname="notification.svg"
   inkscape:export-filename="/opt/lampp/htdocs/abacus/public/css/images/svg/notification.svg.png"
   inkscape:export-xdpi="9.5891733"
   inkscape:export-ydpi="9.5891733">
  <metadata
     id="metadata8">
    <rdf:RDF>
      <cc:Work
         rdf:about="">
        <dc:format>image/svg+xml</dc:format>
        <dc:type
           rdf:resource="http://purl.org/dc/dcmitype/StillImage" />
        <dc:title />
      </cc:Work>
    </rdf:RDF>
  </metadata>
  <defs
     id="defs6">
    <clipPath
       id="clipPath-920662187">
      <g
         id="g2999"
         transform="translate(0,-1004.3622)">
        <path
           id="path3001"
           fill="#1890d0"
           transform="matrix(15.333333,0,0,11.5,414.99999,878.8622)"
           d="m -24 13 c 0 1.105 -0.672 2 -1.5 2 -0.828 0 -1.5 -0.895 -1.5 -2 0 -1.105 0.672 -2 1.5 -2 0.828 0 1.5 0.895 1.5 2 z" />
      </g>
    </clipPath>
    <clipPath
       id="clipPath-900858965">
      <g
         id="g2994"
         transform="translate(0,-1004.3622)">
        <path
           id="path2996"
           fill="#1890d0"
           transform="matrix(15.333333,0,0,11.5,414.99999,878.8622)"
           d="m -24 13 c 0 1.105 -0.672 2 -1.5 2 -0.828 0 -1.5 -0.895 -1.5 -2 0 -1.105 0.672 -2 1.5 -2 0.828 0 1.5 0.895 1.5 2 z" />
      </g>
    </clipPath>
    <linearGradient
       gradientUnits="userSpaceOnUse"
       y2="1"
       x2="0"
       y1="47"
       id="linearGradient3764">
      <stop
         id="stop2989"
         stop-opacity="1"
         stop-color="#e3252a" />
      <stop
         id="stop2991"
         stop-opacity="1"
         stop-color="#e5373b"
         offset="1" />
    </linearGradient>
    <clipPath
       id="clipPath4157"
       clipPathUnits="userSpaceOnUse">
      <rect
         style="fill:#2c3e50;fill-opacity:1;fill-rule:evenodd;stroke:none"
         id="rect4159"
         width="919.86444"
         height="915.62537"
         x="423.39319"
         y="61.662727"
         ry="117.32491" />
    </clipPath>
    <clipPath
       id="clipPath4157-5"
       clipPathUnits="userSpaceOnUse">
      <rect
         style="fill:#2c3e50;fill-opacity:1;fill-rule:evenodd;stroke:none"
         id="rect4159-3"
         width="919.86444"
         height="915.62537"
         x="423.39319"
         y="61.662727"
         ry="117.32491" />
    </clipPath>
  </defs>
  <sodipodi:namedview
     pagecolor="#ffffff"
     bordercolor="#666666"
     borderopacity="1"
     objecttolerance="10"
     gridtolerance="10"
     guidetolerance="10"
     inkscape:pageopacity="0"
     inkscape:pageshadow="2"
     inkscape:window-width="1366"
     inkscape:window-height="744"
     id="namedview4"
     showgrid="false"
     inkscape:zoom="0.32593203"
     inkscape:cx="-220.87796"
     inkscape:cy="543.46886"
     inkscape:window-x="0"
     inkscape:window-y="24"
     inkscape:window-maximized="1"
     inkscape:current-layer="svg2" />
  <g
     id="g3015"
     transform="matrix(17.986657,0,0,17.986657,1156.0736,-167.31717)" />
  <path
     id="path6940"
     d="m 885.25987,347.11652 0,266.12553 0.0479,-0.024 0,90.32386 0,90.29987 -161.07156,-123.62254 -375.25787,0 -3.61065,-87.48437 c -0.91915,-22.27045 322.17183,48.98525 455.04899,1.16938 36.44251,-13.11384 4.55911,-218.71407 42.33854,-227.21904 l 42.50457,-9.5687 z"
     style="fill:#008080;fill-opacity:1"
     inkscape:connector-curvature="0"
     sodipodi:nodetypes="cccccccssscc" />
  <path
     style="fill:#fdca01;fill-opacity:1"
     d="M 169.21875 225.625 L 169.21875 572.28125 L 169.15625 572.25 L 169.15625 689.90625 L 169.15625 807.53125 L 378.96875 646.5 L 867.78125 646.5 L 867.78125 225.625 L 169.21875 225.625 z M 223.96875 311.25 L 816.125 311.25 L 816.125 371.53125 L 223.96875 371.53125 L 223.96875 311.25 z M 223.96875 396.21875 L 816.125 396.21875 L 816.125 456.5 L 223.96875 456.5 L 223.96875 396.21875 z M 223.96875 481.1875 L 816.125 481.1875 L 816.125 541.46875 L 223.96875 541.46875 L 223.96875 481.1875 z "
     id="rect3015" />
</svg>
