<?xml version="1.0" encoding="UTF-8" standalone="no"?>
<!-- Created with Inkscape (http://www.inkscape.org/) -->

<svg
   xmlns:dc="http://purl.org/dc/elements/1.1/"
   xmlns:cc="http://creativecommons.org/ns#"
   xmlns:rdf="http://www.w3.org/1999/02/22-rdf-syntax-ns#"
   xmlns:svg="http://www.w3.org/2000/svg"
   xmlns="http://www.w3.org/2000/svg"
   xmlns:sodipodi="http://sodipodi.sourceforge.net/DTD/sodipodi-0.dtd"
   xmlns:inkscape="http://www.inkscape.org/namespaces/inkscape"
   id="svg2"
   version="1.1"
   inkscape:version="0.48.4 r9939"
   width="512"
   height="512"
   sodipodi:docname="cropper.svg">
  <metadata
     id="metadata8">
    <rdf:RDF>
      <cc:Work
         rdf:about="">
        <dc:format>image/svg+xml</dc:format>
        <dc:type
           rdf:resource="http://purl.org/dc/dcmitype/StillImage" />
        <dc:title />
      </cc:Work>
    </rdf:RDF>
  </metadata>
  <defs
     id="defs6" />
  <sodipodi:namedview
     pagecolor="#ffffff"
     bordercolor="#666666"
     borderopacity="1"
     objecttolerance="10"
     gridtolerance="10"
     guidetolerance="10"
     inkscape:pageopacity="0"
     inkscape:pageshadow="2"
     inkscape:window-width="1282"
     inkscape:window-height="641"
     id="namedview4"
     showgrid="false"
     inkscape:zoom="0.59760454"
     inkscape:cx="128.25912"
     inkscape:cy="147.52603"
     inkscape:window-x="15"
     inkscape:window-y="39"
     inkscape:window-maximized="0"
     inkscape:current-layer="svg2" />
  <rect
     style="fill:#357ced;fill-opacity:1;fill-rule:evenodd;stroke:none"
     id="rect3011"
     width="459.02856"
     height="451.28223"
     x="-485.61438"
     y="27.737465"
     ry="0"
     transform="scale(-1,1)" />
  <path
     style="fill:#ffffff;fill-opacity:1;fill-rule:nonzero;stroke:none"
     d="m 468.51926,367.49318 c -19.11778,-3.67511 -73.58064,-21.15604 -114.18551,-36.6501 -26.19013,-9.99368 -47.9566,-18.65187 -48.36992,-19.24045 -2.11374,-3.01006 6.08897,-14.16971 15.34606,-20.87808 l 10.47696,-7.59234 1.2205,-15.58523 c 0.67126,-8.57187 2.84197,-20.11134 4.82379,-25.64326 3.58984,-10.02045 17.06786,-26.54963 29.03838,-35.61204 8.70597,-6.59095 32.47753,-6.50137 41.37954,0.15597 9.8408,7.35941 19.22351,18.74945 23.43076,28.44353 3.32131,7.65272 4.80721,8.86947 10.83159,8.86947 11.10742,0 26.89257,9.71505 35.45319,21.81989 l 7.64623,10.81185 0,46.45303 0,46.45305 -5.84711,-0.38387 c -3.21591,-0.21113 -8.27591,-0.85079 -11.24446,-1.42142 z"
     id="path3005"
     inkscape:connector-curvature="0" />
  <path
     style="fill:#cccccc;fill-opacity:1;fill-rule:nonzero;stroke:none"
     d="m 289.51512,316.17117 c -10.28197,-3.45375 -10.59329,-3.70783 -13.68901,-11.17133 -3.24174,-7.81556 -7.942,-13.89843 -13.66638,-17.68639 -2.77505,-1.83635 -2.60266,-1.38013 -5.24508,-13.88094 -2.80554,-13.2723 -6.9565,-21.79731 -14.27897,-29.32606 -3.43528,-3.53195 -5.62144,-6.55176 -5.62144,-7.7647 0,-0.46815 0.88829,-3.22129 1.97402,-6.11808 7.4256,-19.81211 21.59849,-34.13669 37.56203,-37.96393 4.6944,-1.12549 14.92986,-1.12489 19.6357,0.001 13.84521,3.31283 25.20026,12.98448 33.87893,28.85626 4.35697,7.96815 4.98469,8.62654 8.69657,9.12136 3.17163,0.4228 4.17755,1.19326 4.17755,3.19977 0,0.82496 -1.12994,4.97764 -2.51097,9.22812 -3.77412,11.61584 -4.96687,17.50846 -6.59556,32.58376 -0.56427,5.22332 -1.08838,9.56523 -1.16465,9.64867 -0.0762,0.0835 -3.17946,2.09847 -6.89595,4.4778 -9.6305,6.16548 -13.57473,10.10275 -19.81138,19.77635 -1.6297,2.52782 -3.70877,5.62195 -4.6201,6.87584 -1.59915,2.20019 -1.72766,2.27839 -3.67966,2.23949 -1.11247,-0.0222 -4.778,-0.96585 -8.14565,-2.09709 z"
     id="path3781"
     inkscape:connector-curvature="0" />
  <path
     style="fill:#ffffff;fill-opacity:1;fill-rule:nonzero;stroke:none"
     d="m 245.44154,292.30109 c -13.85319,-3.93318 -35.22451,-9.18548 -47.49193,-11.67177 l -22.30435,-4.52054 5.58297,-7.10372 c 3.07064,-3.90706 8.65489,-7.90155 12.40923,-8.87669 4.19226,-1.08885 9.71437,-5.52899 14.31099,-11.50709 10.81059,-14.05954 27.86667,-16.63473 39.33052,-5.93828 4.59125,4.28397 11.58514,22.49773 11.76576,30.64101 0.0613,2.74634 3.42459,8.38212 7.54492,12.64161 6.92788,7.16174 9.02715,12.13444 5.52368,13.08427 -0.81635,0.22134 -12.81862,-2.81562 -26.67179,-6.7488 z"
     id="path3009"
     inkscape:connector-curvature="0" />
  <path
     inkscape:connector-curvature="0"
     id="path2984"
     d="m 24.71966,396.48646 0,-93.76471 9.422547,-4.46331 c 19.850088,-9.40267 46.970221,-17.66399 72.627853,-22.1239 18.36814,-3.19281 50.4669,-4.30101 66.29237,-2.28871 34.87616,4.43471 89.35843,17.77964 131.49798,32.20918 114.35123,39.1565 127.9103,43.24555 165.18754,49.81605 7.77034,1.36962 14.74412,3.11861 15.4973,3.88668 1.07298,1.09415 1.30824,15.29296 1.08678,65.58596 l -0.28267,64.18949 -230.66486,0.35896 -230.66484,0.35896 0,-93.76465 z"
     style="fill:#51b329" />
  <g
     id="g3809"
     transform="matrix(0.88660576,0,0,1.314984,27.340571,-69.822542)" />
</svg>
