<?xml version="1.0" encoding="UTF-8" standalone="no"?>
<!-- Created with Inkscape (http://www.inkscape.org/) -->

<svg
   xmlns:dc="http://purl.org/dc/elements/1.1/"
   xmlns:cc="http://creativecommons.org/ns#"
   xmlns:rdf="http://www.w3.org/1999/02/22-rdf-syntax-ns#"
   xmlns:svg="http://www.w3.org/2000/svg"
   xmlns="http://www.w3.org/2000/svg"
   xmlns:sodipodi="http://sodipodi.sourceforge.net/DTD/sodipodi-0.dtd"
   xmlns:inkscape="http://www.inkscape.org/namespaces/inkscape"
   width="48"
   height="48"
   id="svg2"
   version="1.1"
   inkscape:version="0.48.4 r9939"
   sodipodi:docname="preferences.svg">
  <defs
     id="defs4" />
  <sodipodi:namedview
     id="base"
     pagecolor="#ffffff"
     bordercolor="#666666"
     borderopacity="1.0"
     inkscape:pageopacity="0.0"
     inkscape:pageshadow="2"
     inkscape:zoom="11.31788"
     inkscape:cx="33.843779"
     inkscape:cy="26.790174"
     inkscape:document-units="px"
     inkscape:current-layer="layer1"
     showgrid="false"
     inkscape:window-width="1366"
     inkscape:window-height="744"
     inkscape:window-x="0"
     inkscape:window-y="24"
     inkscape:window-maximized="1">
    <sodipodi:guide
       position="4,4.0000174"
       orientation="-40,0"
       id="guide4077" />
    <sodipodi:guide
       position="4,44.000017"
       orientation="0,40"
       id="guide4079" />
    <sodipodi:guide
       position="44,44.000017"
       orientation="40,0"
       id="guide4081" />
    <sodipodi:guide
       position="44,4.0000174"
       orientation="0,-40"
       id="guide4083" />
    <sodipodi:guide
       position="9,9.0000174"
       orientation="-30,0"
       id="guide4087" />
    <sodipodi:guide
       position="9,39.000017"
       orientation="0,30"
       id="guide4089" />
    <sodipodi:guide
       position="39,39.000017"
       orientation="30,0"
       id="guide4091" />
    <sodipodi:guide
       position="39,9.0000174"
       orientation="0,-30"
       id="guide4093" />
    <sodipodi:guide
       position="15,15.000017"
       orientation="-18,0"
       id="guide4097" />
    <sodipodi:guide
       position="15,33.000017"
       orientation="0,18"
       id="guide4099" />
    <sodipodi:guide
       position="33,33.000017"
       orientation="18,0"
       id="guide4101" />
    <sodipodi:guide
       position="33,15.000017"
       orientation="0,-18"
       id="guide4103" />
  </sodipodi:namedview>
  <metadata
     id="metadata7">
    <rdf:RDF>
      <cc:Work
         rdf:about="">
        <dc:format>image/svg+xml</dc:format>
        <dc:type
           rdf:resource="http://purl.org/dc/dcmitype/StillImage" />
        <dc:title />
      </cc:Work>
    </rdf:RDF>
  </metadata>
  <g
     inkscape:label="Capa 1"
     inkscape:groupmode="layer"
     id="layer1"
     transform="translate(0,-1004.3622)">
    <circle
       style="fill:#2c3e50;fill-opacity:1;stroke:none"
       id="path4073"
       cx="24"
       cy="1028.3622"
       r="20"
       d="m 44,1028.3622 c 0,11.0457 -8.954305,20 -20,20 -11.045695,0 -20,-8.9543 -20,-20 0,-11.0457 8.954305,-20 20,-20 11.045695,0 20,8.9543 20,20 z"
       sodipodi:cx="24"
       sodipodi:cy="1028.3622"
       sodipodi:rx="20"
       sodipodi:ry="20"
       transform="matrix(1.0913745,0,0,1.0913745,-2.2800104,-93.966042)" />
    <g
       transform="matrix(0.73970868,0,0,-0.73970868,-5299.2157,6531.0721)"
       id="g1868"
       style="fill:#2c3e50;fill-opacity:1">
      <path
         d="m 7204.375,7459.5542 -16.25,0 c 0,0 0.8533,8.9814 3.625,12.188 2.5908,2.9974 6.9165,2.6261 9,0 2.6344,-3.3204 3.625,-12.188 3.625,-12.188 z"
         style="fill:#2c3e50;fill-opacity:1;fill-rule:nonzero;stroke:none"
         id="path88"
         inkscape:connector-curvature="0"
         sodipodi:nodetypes="ccssc" />
      <path
         d="m 7188.125,7418.4917 16.25,0 c 0,0 -0.338,-9.512 -3.625,-12.188 -2.3457,-1.9096 -6.6415,-2.279 -9,0 -3.048,2.9453 -3.625,12.188 -3.625,12.188 z"
         style="fill:#2c3e50;fill-opacity:1;fill-rule:nonzero;stroke:none"
         id="path92"
         inkscape:connector-curvature="0"
         sodipodi:nodetypes="ccssc" />
      <path
         d="m 7216.7813,7431.1807 0,16.25 c 0,0 9.1373,-0.6824 12.188,-3.625 2.4931,-2.4048 2.6819,-6.5952 0,-9 -3.1557,-2.8296 -12.188,-3.625 -12.188,-3.625 z"
         style="fill:#2c3e50;fill-opacity:1;fill-rule:nonzero;stroke:none"
         id="path96"
         inkscape:connector-curvature="0"
         sodipodi:nodetypes="ccssc" />
      <path
         d="m 7175.7188,7447.4307 0,-16.25 c 0,0 -9.2637,0.6547 -12.188,3.625 -2.9243,2.9703 -3.1493,6.1884 0,9 3.1493,2.8116 12.188,3.625 12.188,3.625 z"
         style="fill:#2c3e50;fill-opacity:1;fill-rule:nonzero;stroke:none"
         id="path100"
         inkscape:connector-curvature="0"
         sodipodi:nodetypes="cczzc" />
      <path
         d="m 7187.6025,7459.4111 -11.491,-11.491 c 0,0 -5.4871,6.729 -6.054,11.181 -0.5669,4.452 2.8156,6.9596 6.364,6.365 3.5484,-0.5946 11.181,-6.055 11.181,-6.055 z"
         style="fill:#2c3e50;fill-opacity:1;fill-rule:nonzero;stroke:none"
         id="path104"
         inkscape:connector-curvature="0"
         sodipodi:nodetypes="cczzc" />
      <path
         d="m 7205.1475,7418.8848 11.49,11.491 c 0,0 5.8343,-6.9483 6.055,-11.181 0.1615,-3.0959 -1.8516,-6.2632 -6.363,-6.365 -4.2377,-0.096 -11.182,6.055 -11.182,6.055 z"
         style="fill:#2c3e50;fill-opacity:1;fill-rule:nonzero;stroke:none"
         id="path108"
         inkscape:connector-curvature="0"
         sodipodi:nodetypes="ccssc" />
      <path
         d="m 7216.3877,7447.9204 -11.49,11.491 c 0,0 6.9479,5.8452 11.181,6.054 3.3676,0.1661 6.7723,-2.1347 6.364,-6.364 -0.4073,-4.2188 -6.055,-11.181 -6.055,-11.181 z"
         style="fill:#2c3e50;fill-opacity:1;fill-rule:nonzero;stroke:none"
         id="path112"
         inkscape:connector-curvature="0"
         sodipodi:nodetypes="ccssc" />
      <path
         d="m 7175.8618,7430.3755 11.491,-11.491 c 0,0 -7.3632,-6.2996 -11.181,-6.054 -3.8178,0.2456 -6.5153,1.9977 -6.364,6.364 0.1513,4.3663 6.054,11.181 6.054,11.181 z"
         style="fill:#2c3e50;fill-opacity:1;fill-rule:nonzero;stroke:none"
         id="path116"
         inkscape:connector-curvature="0"
         sodipodi:nodetypes="cczzc" />
      <path
         d="m 7196.5156,7427.0972 c -6.75,0 -12.225,5.474 -12.225,12.224 0,6.751 5.475,12.225 12.225,12.225 6.751,0 12.223,-5.474 12.223,-12.225 0,-6.75 -5.472,-12.224 -12.223,-12.224 m -0.266,37.47 c -14.088,0 -25.512,-11.423 -25.512,-25.512 0,-14.088 11.424,-25.512 25.512,-25.512 14.087,0 25.512,11.424 25.512,25.512 0,14.089 -11.425,25.512 -25.512,25.512"
         style="fill:#2c3e50;fill-opacity:1;fill-rule:nonzero;stroke:none"
         id="path120"
         inkscape:connector-curvature="0" />
    </g>
  </g>
</svg>
